<?xml version="1.0" encoding="utf-8"?>
<!-- Generator: Adobe Illustrator 27.7.0, SVG Export Plug-In . SVG Version: 6.00 Build 0)  -->
<svg version="1.1" xmlns="http://www.w3.org/2000/svg" xmlns:xlink="http://www.w3.org/1999/xlink" x="0px" y="0px"
	 viewBox="0 0 841.89 595.28" style="enable-background:new 0 0 841.89 595.28;" xml:space="preserve">
<style type="text/css">
	.st0{fill-rule:evenodd;clip-rule:evenodd;fill:#B6DCAE;}
</style>
<g id="border">
</g>
<g id="rosetta">
	<g>
		<g>
			<path class="st0" d="M396.95,224.65c-7.72,8.82-10.59,17.98-12.91,25.34c-2.04,6.49-3.51,11.19-7.35,12.59
				c-1.68,0.61-3.8,0.56-6.46-0.18c-3.31-0.91-7.31-2.43-11.93-4.18c-10.39-3.94-23.32-8.83-35.26-9.25
				c-7.86-0.28-13.39,1.14-16.43,4.2c-3.79,3.82-3.33,10,1.25,16.96c5.9,8.95,13.65,15.43,19.89,20.63
				c5.86,4.89,10.09,8.42,9.17,11.26c-0.5,1.57-2.54,2.9-6.4,4.18l-9.34,2.79c-12.52,3.58-28.09,8.04-35.37,15.14
				c-3.8,3.72-4.8,7.19-2.96,10.32c2.69,4.58,11.63,8.28,23.91,9.91c13.23,1.75,24.58,1.63,32.86,1.54
				c9.01-0.09,14.97-0.16,17.43,2.01c1.65,1.45,1.69,3.99,0.13,7.98l-1.63,3.96c-3.83,9.14-9.62,22.95-4.14,31.39
				c3.1,4.77,8.56,6.99,15.39,6.25c16.08-1.73,29.86-13.42,39.92-21.96c6.49-5.5,11.61-9.85,15.11-9.86
				c4.22-0.01,9.33,4.92,15.25,10.63c3.83,3.69,8.17,7.88,12.72,11.05c11.03,7.68,21.14,10.58,28.47,8.14
				c8.44-2.8,12.26-12.38,9.97-24.99c-1.35-7.46-3.35-13.28-4.81-17.54c-1.95-5.67-3.12-9.1-0.98-10.86
				c2.21-1.82,8.33-1.97,18.15-1.61l0.29,0.01c12.53,0.45,41.89,1.52,48.73-7.01c1.25-1.55,1.86-3.29,1.86-5.11
				c0-2.55-1.21-5.24-3.6-7.78c-3.99-4.23-11.49-8.51-22.29-12.71c-5.99-2.35-11.51-4.16-16.37-5.76
				c-9.68-3.19-15.95-5.25-15.95-8.2c0-0.36,0.1-0.74,0.29-1.13c1.15-2.32,5.44-5.63,10.42-9.47c6.17-4.76,13.85-10.68,18.14-16.82
				c2.06-2.95,4.06-6.7,4.06-10.13c0-1.65-0.46-3.24-1.61-4.62c-3.11-3.77-9.83-5.75-18.44-5.45c-15.5,0.55-29.16,5.17-40.14,8.87
				c-8.62,2.91-15.42,5.21-19.47,4.17c-1.4-0.36-2.43-1.1-3.16-2.28c-1.3-2.11-2.22-5.75-3.27-9.97
				c-1.84-7.32-4.13-16.43-9.71-22.99c-4.62-5.42-10.17-8.3-16.05-8.32C408.14,215.78,401.96,218.92,396.95,224.65z M376.9,262.84
				c4.02-1.47,5.51-6.22,7.58-12.79c2.31-7.34,5.17-16.48,12.85-25.25c4.93-5.63,10.97-8.71,17.01-8.69
				c5.71,0.02,11.13,2.85,15.67,8.18c5.54,6.5,7.82,15.59,9.65,22.88c1.06,4.23,1.98,7.89,3.3,10.04c0.77,1.25,1.89,2.05,3.41,2.44
				c4.22,1.08,11.11-1.24,19.82-4.18c10.94-3.7,24.56-8.29,39.97-8.85c8.44-0.3,15.01,1.63,18.04,5.29
				c3.42,4.14,0.55,10.16-2.46,14.47c-4.26,6.1-11.91,12-18.07,16.75c-5.01,3.86-9.33,7.2-10.51,9.57
				c-1.9,3.83,4.79,6.04,15.89,9.69c4.86,1.6,10.36,3.41,16.34,5.75l0,0c10.73,4.18,18.18,8.42,22.14,12.62
				c3.99,4.24,4.64,8.94,1.72,12.57c-6.71,8.37-35.87,7.31-48.32,6.86l-0.29-0.01c-11.76-0.43-16.44,0.01-18.52,1.72
				c-2.28,1.88-1.09,5.36,0.89,11.12c1.46,4.25,3.45,10.07,4.8,17.51c2.26,12.47-1.46,21.93-9.72,24.67
				c-7.14,2.37-17.08-0.5-27.96-8.08c-4.52-3.15-8.67-7.15-12.67-11.01c-5.99-5.77-11.16-10.76-15.61-10.75
				c-3.71,0.01-8.89,4.4-15.45,9.97c-10.01,8.5-23.73,20.14-39.64,21.85c-6.61,0.71-11.91-1.45-14.92-6.08
				c-5.41-8.34,0.35-22.08,4.16-31.18l1.63-3.96c1.62-4.15,1.56-6.7-0.21-8.25c-2.6-2.28-8.64-2.22-17.78-2.12
				c-8.26,0.09-19.58,0.21-32.77-1.54c-12.13-1.61-20.94-5.24-23.58-9.72c-1.78-3.03-0.8-6.4,2.91-10.03
				c7.2-7.03,22.71-11.47,35.17-15.04l9.36-2.8c3.99-1.32,6.1-2.71,6.64-4.38c0.96-2.99-3.33-6.57-9.26-11.52
				c-6.22-5.19-13.95-11.65-19.83-20.56c-4.52-6.86-4.99-12.94-1.29-16.66c2.95-2.97,8.35-4.34,16.05-4.07
				c11.84,0.41,24.72,5.29,35.07,9.22c4.64,1.76,8.65,3.28,11.98,4.2C372.86,263.45,375.09,263.5,376.9,262.84z M525.61,307.89
				L525.61,307.89L525.61,307.89z"/>
		</g>
		<g>
			<path class="st0" d="M372.1,177.88c-27.67,9.34-41.91,17.22-59.94,27.2l-11.47,6.3c-3.74,2.02-5.95,2.83-6.95,2.52
				c-0.84-0.25-0.96-1.32-1.1-2.67c-0.18-1.72-0.41-3.87-2.28-5.56c-1.35-1.22-3.02-1.76-4.97-1.6
				c-9.17,0.74-22.31,16.79-27.24,24.45c-12.45,19.36-15.97,31.67-20.43,47.27l-2.89,9.89c-0.97,3.2-1.91,4.79-2.96,5
				c-0.88,0.18-1.97-0.59-3.34-1.56c-1.76-1.24-3.94-2.78-6.95-3.25c-2.18-0.34-3.97-0.01-5.31,0.96
				c-6.34,4.61-1.37,22.71,2.04,30.75c8.6,20.32,17.44,31.31,28.63,45.23l7.05,8.85c2.26,2.88,3.02,4.51,2.42,5.14
				c-0.51,0.52-2.06,0.42-4.02,0.28c-2.51-0.17-5.62-0.39-8.37,0.58c-1.99,0.7-3.05,1.74-3.16,3.08c-0.53,6.33,20.22,18,30.36,22.66
				c25.62,11.78,42.7,16.3,64.32,22.03l13.66,3.66c4.43,1.21,6.54,2.12,6.66,2.87c0.1,0.63-1.19,1.23-2.82,1.99
				c-2.08,0.97-4.68,2.18-5.87,4.13c-0.86,1.41-0.71,2.68,0.46,3.75c5.52,5.09,32.35,4.87,44.48,3.96
				c30.72-2.29,48.17-6.39,70.26-11.58l13.54-3.14c4.03-0.92,6.71-1.38,7.64-0.87c0.35,0.2,0.47,0.55,0.38,1.12l-0.23,0.72
				c-0.74,2.06-2.46,6.89,0.85,8.82c2,1.16,5.52,1.02,10.44-0.44c8.61-2.54,19.35-8.18,29.45-15.48
				c21.33-15.4,35.58-30.42,50.41-48.25c2.32-2.79,3.79-4.3,4.9-4.3c0.48,0,0.96,0.31,1.47,0.95l1.25,1.81
				c1.28,1.98,2.72,4.22,5.52,4.54c2.58,0.3,5.91-1.08,10.19-4.21l0.02-0.01c8.67-8.22,10.57-38.04,6.87-59.66
				c-1.28-7.49-2.91-14.17-4.1-19.05l-1.26-5.35c-0.69-3.23-0.59-4.95,0.29-5.39c0.74-0.37,2.15,0.09,3.92,0.68
				c2.27,0.75,5.09,1.69,8.15,1.42c2.21-0.19,3.73-0.92,4.51-2.15c3.66-5.82-10.03-21.66-17.24-28.42
				c-18.21-17.08-32-25.34-49.45-35.79l-11.02-6.65c-3.56-2.18-5.09-3.53-4.83-4.26c0.22-0.61,1.73-0.88,3.64-1.21
				c2.44-0.43,5.48-0.95,7.58-2.51c1.52-1.13,2-2.35,1.44-3.64c-2.65-6.07-27.97-12.17-39.82-14.17c-29.94-5.05-48.23-5.3-71.38-5.6
				l-14.7-0.23c-4.76-0.1-7.2-0.46-7.69-1.13c-0.41-0.57,0.5-1.43,1.66-2.53c1.47-1.4,3.31-3.15,3.46-5.26
				c0.11-1.53-0.67-2.68-2.31-3.42C408.15,167.68,383.05,174.18,372.1,177.88z M300.97,211.62l11.47-6.3
				c18-9.97,32.23-17.84,59.85-27.17c10.44-3.52,35.84-10.11,43.33-6.73c1.5,0.68,2.21,1.74,2.11,3.15
				c-0.14,2.03-1.93,3.73-3.37,5.1c-1.24,1.18-2.22,2.11-1.7,2.84c0.58,0.81,2.99,1.2,8.07,1.3l14.7,0.23
				c23.12,0.31,41.39,0.55,71.28,5.59c11.3,1.91,36.93,8.07,39.5,13.96c0.52,1.18,0.07,2.3-1.34,3.34
				c-2.01,1.49-4.98,2.01-7.36,2.42c-2.06,0.36-3.68,0.64-3.96,1.43c-0.31,0.87,1.17,2.24,4.96,4.56l11.03,6.65
				c17.43,10.44,31.21,18.68,49.39,35.74c6.87,6.44,20.73,22.47,17.19,28.12c-0.71,1.13-2.11,1.79-4.16,1.97
				c-2.93,0.25-5.69-0.66-7.9-1.39c-1.91-0.63-3.42-1.13-4.37-0.65c-0.62,0.31-0.92,1.02-0.92,2.25c0,0.87,0.15,2,0.46,3.43
				l1.26,5.36c1.19,4.88,2.81,11.55,4.1,19.04c1.19,6.92,1.8,14.68,1.8,22.3c0,16.11-2.74,31.59-8.58,37.14
				c-4.16,3.05-7.36,4.39-9.78,4.11c-2.57-0.3-3.9-2.37-5.19-4.37l-1.27-1.84c-0.6-0.75-1.19-1.1-1.85-1.1
				c-1.34-0.01-2.77,1.43-5.28,4.45c-14.81,17.8-29.04,32.81-50.34,48.19c-10.07,7.27-20.75,12.88-29.31,15.41
				c-4.76,1.41-8.12,1.57-9.98,0.48c-3.1-1.8-1.36-6.68-0.7-8.51l0.25-0.76c0.11-0.68-0.06-1.12-0.54-1.39
				c-0.97-0.54-3-0.33-8.05,0.82l-13.54,3.14c-22.06,5.19-39.49,9.28-70.16,11.56c-11.56,0.86-38.72,1.09-44.08-3.84
				c-1.07-0.99-1.21-2.15-0.41-3.46c1.14-1.87,3.68-3.05,5.71-4c1.75-0.82,3.14-1.46,3.01-2.27c-0.14-0.89-2.22-1.83-6.94-3.12
				l-13.67-3.66c-21.59-5.72-38.65-10.24-64.23-22c-9.67-4.44-30.68-16.25-30.16-22.39c0.1-1.23,1.09-2.18,2.92-2.83
				c2.63-0.93,5.67-0.72,8.12-0.54c2.11,0.15,3.77,0.26,4.43-0.41c0.73-0.75,0.02-2.38-2.39-5.45l-7.05-8.85
				c-11.18-13.9-20.01-24.88-28.59-45.17c-3.24-7.67-8.28-25.98-2.14-30.46c1.23-0.89,2.87-1.19,4.89-0.88
				c2.88,0.45,5.02,1.96,6.73,3.17c1.48,1.04,2.64,1.87,3.78,1.64c1.26-0.25,2.24-1.82,3.27-5.23l2.89-9.9
				c4.45-15.57,7.97-27.87,20.4-47.2c4.7-7.3,17.99-23.56,26.89-24.28c1.78-0.14,3.32,0.36,4.57,1.49c1.79,1.61,2.01,3.71,2.19,5.39
				c0.16,1.45,0.28,2.6,1.36,2.93C294.77,214.54,296.98,213.78,300.97,211.62z"/>
		</g>
		<g>
			<path class="st0" d="M366.46,180.38c-26.39,8.02-61.03,28.94-67.87,44.96c-2.38,5.58-0.87,10.87,2.91,20.79
				c3.99,10.5,10.52,22.04,17.89,31.68l11.57,14.38c4.49,5.38,6.54,7.83,5.71,8.82c-0.63,0.75-3.16,0.77-7.34,0.78l-6.37,0.09
				l-6.45,0.16c-10.37,0.25-23.27,0.57-34.05,1.53c-12.11,1.08-24.71,1.79-34.01-2.31c-3.54-1.56-6.82-3.35-9.98-5.08
				c-4.85-2.65-9.43-5.15-14.08-6.3c-3.92-0.97-6.89-0.9-8.81,0.19c-2.57,1.47-3.26,4.79-2.06,9.87
				c2.32,9.76,10.67,24.27,27.18,35.73c16.63,11.54,36.6,20.12,52.11,22.41c7.02,1.04,13.52,1.41,19.26,1.75
				c15.5,0.9,26.71,1.56,33.32,13.94c5.07,9.49,4.82,16.3,4.67,20.37c-0.09,2.3-0.14,3.83,0.7,4.73c0.66,0.71,2.08,1.62,3.87,2.77
				c5.77,3.7,14.49,9.3,11.66,16.51c-2.66,6.8-9.97,12.42-14.81,16.14c-3.46,2.66-5.75,4.42-5.05,5.43
				c0.44,0.63,1.93,0.86,4.84,0.77c22.78-0.74,82.02-15.78,103.49-24.08c24.3-9.4,34.04-19.66,34.04-37.31
				c0-2.54-0.2-5.23-0.59-8.09c-0.21-1.58-0.46-2.98-0.72-4.29c0.57,0.59,1.04,1.16,1.71,1.77c4.78,4.32,17.83,14.44,35.8,15.1
				c16.31,0.6,32-2.63,39.67-5.88l6.1-2.82c4.47-2.17,7.17-3.48,9.27-2.26c1.4,0.82,2.37,1.85,2.88,2.41
				c0.37,0.4,0.47,0.51,0.69,0.45c0.24-0.07,0.24-0.07-0.3-1.61c-1.26-3.54-4.66-10.84-10.17-21.83l0,0
				c-9.97-21.85-38.16-38.38-56.82-49.32c-6.38-3.74-11.41-6.69-13.91-8.85c-4.84-4.16-3.38-6.67,3.17-11.64
				c6.97-5.29,17.67-10.39,27.27-13c12.59-3.41,22.96-3.59,30.53-3.72c9.19-0.16,14.74-0.26,15.24-6.14
				c1.3-15.29-27.82-40.32-40.79-43.82c-8.04-2.17-12.71-0.03-18.13,2.45c-5.69,2.61-12.13,5.56-24.3,4.96
				c-12.5-0.61-28.19-2.89-43.19-5.16l-1.63-0.25c-23.84-3.62-39.59-6.02-52.66,5.89c-1.24,1.13-2.26,2.17-3.16,3.13
				c1.49-2.6,3.53-6.59,5.89-12.17c2.31-5.45,4.41-12.06,4.41-18.05c0-4.09-0.98-7.88-3.55-10.81
				C394.66,177.73,381.55,175.8,366.46,180.38z M282.52,303.88c10.76-0.96,23.65-1.27,34.01-1.53l6.45-0.17l6.35-0.09
				c4.49-0.02,6.96-0.03,7.72-0.94c0.96-1.14-1-3.48-5.71-9.12l-11.57-14.38c-7.36-9.61-13.87-21.14-17.85-31.61
				c-3.76-9.87-5.27-15.13-2.92-20.63c6.81-15.93,41.32-36.77,67.62-44.76c14.87-4.52,27.77-2.63,34.5,5.06
				c2.53,2.88,3.49,6.62,3.49,10.66c0,5.94-2.1,12.53-4.4,17.96c-3.08,7.28-5.49,11.62-6.9,13.85c-0.89,1.06-1.44,1.84-1.44,2.06
				c0,0.02,0,0.04,0.01,0.05l0.07,0.09l0.15-0.01c0.16-0.01,0.73-0.7,1.62-2.09c0.97-1.15,2.45-2.75,4.54-4.65
				c12.9-11.75,28.54-9.37,52.21-5.77l1.63,0.25c15.01,2.28,30.72,4.55,43.25,5.17c12.31,0.61,18.83-2.38,24.57-5.01
				c5.53-2.54,9.91-4.54,17.73-2.42c12.27,3.32,40.55,27.63,40.55,42.58c0,0.32-0.01,0.64-0.04,0.95c-0.47,5.6-5.57,5.69-14.81,5.85
				c-7.61,0.13-18.02,0.31-30.68,3.75c-9.66,2.62-20.43,7.75-27.44,13.08c-3.9,2.97-6.12,5.15-6.12,7.38c0,1.45,0.93,2.93,2.94,4.65
				c2.53,2.17,7.58,5.14,13.97,8.89c18.62,10.92,46.76,27.42,56.69,49.18l0,0c5.51,10.99,8.9,18.27,10.1,21.65
				c0.03,0.09,0.18,0.53,0.3,0.92c-0.55-0.59-1.46-1.53-2.81-2.32c-2.36-1.37-5.32,0.07-9.81,2.25l-6.08,2.81
				c-7.62,3.23-23.2,6.43-39.41,5.83c-17.79-0.66-30.73-10.7-35.47-14.98c-0.88-0.79-1.52-1.54-2.22-2.3
				c-1.48-6.97-3.49-9.94-4.67-10.15c-0.26-0.05-0.51,0.03-0.67,0.2c-0.19,0.19-0.29,0.53-0.29,0.98c0,1.71,1.57,5.15,5.2,9.09
				c0.31,1.46,0.61,3.05,0.86,4.91c0.39,2.84,0.59,5.51,0.59,8.04c0,17.54-9.68,27.73-33.82,37.07
				c-21.44,8.29-80.57,23.3-103.29,24.04c-2.63,0.09-4.08-0.11-4.42-0.6c-0.57-0.83,1.88-2.71,4.98-5.1
				c4.86-3.74,12.22-9.4,14.91-16.26c2.9-7.39-6.29-13.29-11.78-16.82c-1.77-1.14-3.17-2.04-3.8-2.71
				c-0.77-0.82-0.71-2.31-0.63-4.56c0.15-4.09,0.41-10.93-4.7-20.48c-6.71-12.56-18.03-13.22-33.7-14.14
				c-5.72-0.33-12.21-0.71-19.2-1.74c-15.43-2.27-35.31-10.83-51.88-22.32c-16.43-11.4-24.75-25.85-27.06-35.56
				c-1.18-4.97-0.54-8.2,1.9-9.59c1.8-1.02,4.62-1.07,8.38-0.14c4.59,1.13,9.14,3.62,13.96,6.25c3.17,1.73,6.45,3.53,10.02,5.1
				C257.64,305.68,270.33,304.96,282.52,303.88z M482.13,357.05c0-0.38,0.08-0.66,0.23-0.81c1.01,0.09,2.91,2.66,4.39,9.18
				C483.45,361.69,482.13,358.55,482.13,357.05z"/>
		</g>
		<g>
			<path class="st0" d="M365.59,184.29c-16.53,2.37-34.93,10.11-45.84,16.72c-11.9,7.21-19.84,14.79-22.43,19.09
				c-2.53,4.21-1.21,8.11,1.43,15.87l0.24,0.7c6.7,19.75,22.71,42.56,34.39,59.22l0.92,1.31c1.82,2.59,2.82,4.57,1.84,5.84
				c-0.83,1.06-3.02,1.7-7.34,2.13c-3.9,0.39-8.85,0.59-14.1,0.81c-6.9,0.29-14.71,0.61-22.14,1.43
				c-12.05,1.32-25.72,2.45-35.44-0.89c-3.83-1.32-8.21-3.4-12.85-5.6c-9.52-4.52-19.36-9.2-25.03-7.33
				c-2.7,0.89-4.2,3.14-4.58,6.87c-0.8,7.82,3.07,21.47,16.62,34.2c13.85,13.02,31.37,23.04,45.72,26.14
				c9.62,2.08,18.16,2.62,25.69,3.1c13.45,0.85,24.07,1.53,33.39,10.26c4.3,4.03,8.15,8.74,11.25,12.53l3.81,4.55
				c6.3,7.09,8.39,7.06,11.27,7.01c1.67-0.03,3.56-0.06,6.79,1.4c3.59,1.63,7.34,4.75,4.8,10.39c-2.42,5.36-8.34,12.06-16.23,18.38
				c-6.92,5.54-11.76,9.66-11.05,12.28c0.21,0.76,0.89,1.36,2.03,1.78c5.72,2.12,19.78,1.15,39.6-2.73
				c22.08-4.31,45.45-10.63,60.98-16.5c28.87-10.9,38.98-21.34,38.98-42.3c0-2.12-0.1-4.36-0.3-6.71
				c-0.96-11.32-3.3-18.15-4.89-21.55c0.86,0.99,1.95,2.17,3.39,3.52c6.37,6,17.13,13.68,32.16,16.24
				c24.67,4.2,38.47,0.88,47.6-1.31c6.08-1.46,9.75-2.34,12.77,0.22c1.87,1.58,3.27,3.46,4.29,4.83c1.08,1.45,1.54,2.04,2.05,2
				c0.32-0.02,0.45-0.26,0.52-0.44c0.66-1.66-0.2-6.98-2.61-16.26l0,0.01c-5.06-25.07-47.46-52.05-65.56-63.58l-3.79-2.42
				c-8.28-5.33-10.6-8.13-7.15-13.21c5.75-8.43,26.25-21.51,41.73-21.62l2.16,0c6.47,0,11.59,0,13.19-3.87
				c4.51-10.94-17.82-35.56-25.22-41.53c-2.61-2.11-4.77-3.14-6.59-3.14c-1.1,0-2.08,0.35-2.99,1.09
				c-2.07,1.66-5.53,4.43-17.16,4.12c-10.99-0.3-26.22-1.74-42.35-3.28l-3.01-0.29c-28.02-2.66-54.48-5.17-69.56,10.88
				c-0.64,0.68-1.24,1.36-1.8,2.04c2.06-5.3,3.88-11.83,3.88-18.11c0-3.86-0.68-7.61-2.41-10.89
				C391.07,187.14,379.76,182.26,365.59,184.29z M292.63,307.72c7.41-0.81,15.22-1.14,22.1-1.42c5.25-0.22,10.21-0.43,14.13-0.82
				c4.47-0.44,6.77-1.13,7.67-2.29c1.07-1.38,0.04-3.44-1.83-6.11l-0.92-1.31c-11.67-16.64-27.66-39.44-34.36-59.16l-0.24-0.7
				c-2.7-7.94-3.93-11.56-1.45-15.68c2.57-4.27,10.46-11.8,22.31-18.98c10.87-6.58,29.19-14.29,45.64-16.65
				c13.93-2,25.06,2.81,30.53,13.19c1.74,3.29,2.42,7.06,2.42,10.95c0,6.53-1.94,13.36-4.08,18.72c-3.55,4.49-5.42,8.58-5.61,9.76
				c-0.01,0.06-0.01,0.11-0.01,0.16c0,0.13,0.04,0.23,0.18,0.28l0.13,0.05l0.23-0.1c0.62-0.37,3-4.24,5.23-9.7
				c0.79-1.02,1.65-2.06,2.63-3.1c14.93-15.89,41.25-13.39,69.12-10.75l3.01,0.29c16.14,1.53,31.38,2.98,42.39,3.28
				c11.85,0.32,15.39-2.52,17.51-4.22c0.83-0.66,1.69-0.98,2.65-0.98c1.68,0,3.73,1,6.25,3.03c7.36,5.94,29.59,30.42,25.13,41.25
				c-1.51,3.65-6.47,3.65-12.76,3.65l-2.16,0.01c-15.63,0.11-36.33,13.3-42.12,21.8c-3.62,5.32-0.83,8.35,7.24,13.56l3.79,2.42
				c18.07,11.5,60.39,38.43,65.43,63.39l0,0.01c2.37,9.1,3.25,14.53,2.62,16.13l-0.15,0.22c-0.26-0.03-0.97-0.99-1.6-1.84
				c-1.03-1.38-2.44-3.27-4.34-4.88c-3.22-2.73-7-1.82-13.26-0.31c-9.08,2.18-22.8,5.48-47.34,1.3
				c-14.9-2.54-25.58-10.17-31.91-16.12c-2.66-2.5-4.02-4.19-4.66-5.09c-0.19-0.31-0.34-0.54-0.44-0.67
				c-0.01-0.02-0.05-0.08-0.05-0.09c0,0-0.02,0-0.02,0.01c-0.04-0.04-0.11-0.15-0.13-0.15l-0.15-0.03l-0.1,0.09
				c-0.01,0.01-0.02,0.03-0.02,0.05c0,0.02,0.06,0.1,0.07,0.13c0,0-0.02,0-0.02,0c0.01,0.01,0.04,0.06,0.05,0.08
				c0.08,0.2,0.28,0.51,0.6,0.95c1.39,2.49,4.45,9.76,5.57,22.94c0.2,2.34,0.3,4.56,0.3,6.67c0,20.84-10.05,31.23-38.75,42.06
				c-15.5,5.85-38.83,12.16-60.88,16.47c-19.71,3.85-33.65,4.83-39.27,2.75c-1.03-0.38-1.62-0.89-1.8-1.57
				c-0.73-2.68,5.48-7.65,10.95-12.03c7.93-6.35,13.88-13.09,16.32-18.49c2.76-6.12-1.93-9.35-4.98-10.73
				c-3.35-1.52-5.31-1.48-7.05-1.45c-2.74,0.05-4.72,0.08-10.88-6.86l-3.8-4.54c-3.1-3.79-6.95-8.51-11.27-12.56
				c-9.44-8.84-20.15-9.52-33.7-10.38c-7.51-0.48-16.02-1.02-25.6-3.09c-14.05-3.03-31.91-13.25-45.5-26.03
				c-13.48-12.67-17.33-26.24-16.54-34.01c0.37-3.62,1.79-5.78,4.33-6.62c5.44-1.79,15.17,2.83,24.59,7.31
				c4.65,2.21,9.04,4.3,12.9,5.62C266.76,310.17,280.51,309.04,292.63,307.72z M393.97,228.83c-1.89,4.43-3.74,7.53-4.54,8.26
				C389.68,235.92,391.17,232.64,393.97,228.83z"/>
		</g>
		<g>
			<path class="st0" d="M319.77,201c-11.44,5.46-20.24,12.09-23.37,15.22c-2.5,2.5-1.9,4.46-0.47,9.2l0.63,2.1
				c4.46,15.27,22.55,49.38,31.99,63.56c5.03,7.56,6.33,11.34,4.63,13.49c-1.81,2.3-7.04,2.85-15.71,3.76
				c-4.61,0.48-10.34,1.09-16.91,2.13c-11.1,1.76-25.07,3.51-34.71,1.36c-7.33-1.63-14.42-4.8-20.68-7.6
				c-7.93-3.54-14.77-6.6-19.66-5.47c-2.3,0.53-4.02,1.95-5.26,4.32c-10.2,19.57,20.5,52.64,43.45,60.01
				c12.08,3.88,22.09,4.4,30.93,4.86c10.37,0.54,19.32,1,28.41,6.74c3.84,2.42,7.68,5.22,11.41,7.93c4.34,3.16,8.44,6.14,12.38,8.46
				c14.45,8.51,19.2,6.94,24.22,5.27c2.01-0.66,4.08-1.35,6.86-1.35c2.12,0.01,3.62,0.41,4.47,1.2c1.08,1.01,1.11,2.67,0.09,4.92
				c-3.26,7.21-11.48,14.66-18.74,21.22c-8.47,7.66-15.78,14.28-13.36,18.62c2.67,4.8,14.22,6.01,32.53,3.4
				c32.13-4.58,84.89-18.01,98.58-36.26c5.89-7.85,6.71-16.87,6.13-28c-0.57-11-2.98-22.17-4.86-28.39c-0.7-2.3-1.86-6.15-1.23-6.37
				c0.39-0.13,1.96,1.06,3.63,2.33c4.73,3.59,13.55,10.29,27.37,13.98c15.03,4.01,31.25,5.93,41.33,4.88l3.94-0.44
				c8.56-0.98,14.75-1.69,18.81,2.19c2.1,2.01,3.74,4.26,5.18,6.26c1.86,2.56,3.2,4.42,4.65,4.49c0.52,0.03,1.01-0.09,1.46-0.35
				c1.71-1.01,2.82-4.19,3.39-9.71c0.08-0.65,0.11-1.3,0.11-1.97c0-22.07-40.88-56.33-62.59-69.43c-10.98-6.63-16.56-10-16.56-14.86
				c0-3.75,3.34-8.4,10.1-16.12c9-10.28,15.23-10.4,19.77-10.48c2.58-0.05,4.62-0.09,6.14-2.07c0.74-0.97,1.06-2.24,1.06-3.72
				c0-5.75-4.81-14.79-8.83-22.35c-2.23-4.19-4.34-8.16-5.26-10.87c-0.8-2.35-1.1-3.89-1.16-4.93c1.01-0.29,1.36-0.64,1.45-0.87
				c0.03-0.07,0.04-0.14,0.04-0.21c0-0.3-0.26-0.58-0.7-0.75c-0.37-0.14-0.63-0.07-0.78,0.01c-0.37,0.19-0.51,0.71-0.51,1.4
				c0,0.06,0.03,0.14,0.03,0.2c-1.17,0.29-3.22,0.53-7.13,0.36c-6.78-0.29-16.41-1-28.61-1.89l-15.63-1.13
				c-42.63-3.01-74.92-2.99-90.38,22.23c0.55-2.64,0.99-5.58,0.99-8.76c0-3.57-0.5-7.37-1.85-11.13c-2.6-7.24-9.55-19.49-27-20.17
				C350.39,190.92,333.03,194.67,319.77,201z M300.66,310.76c6.55-1.04,12.27-1.64,16.88-2.13c8.81-0.93,14.12-1.49,16.04-3.92
				c1.79-2.28,0.54-6.01-4.62-13.76c-9.43-14.17-27.5-48.25-31.95-63.49l-0.63-2.1c-1.41-4.65-2-6.58,0.4-8.97
				c3.11-3.11,11.87-9.7,23.25-15.14c13.18-6.29,30.43-10.02,43.95-9.5c17.16,0.67,24.03,12.78,26.6,19.94
				c1.34,3.73,1.84,7.51,1.84,11.06c0,3.57-0.51,6.88-1.18,9.74c-1.66,2.86-3.12,6.03-4.35,9.54c-0.51,1.45-0.66,2.2-0.66,2.59
				c0,0.39,0.15,0.41,0.25,0.43c0.23,0.04,0.76,0.14,2.94-5.26c0.65-1.61,1.53-4.13,2.25-7.2c15.13-26.01,47.56-26.02,90.53-22.99
				l15.63,1.13c12.2,0.89,21.85,1.59,28.63,1.89c3.8,0.17,5.91-0.05,7.21-0.36c0.11,1.5,0.67,3.5,1.15,4.92
				c0.93,2.73,3.04,6.7,5.28,10.91c4.01,7.55,8.81,16.56,8.81,22.23c0,1.44-0.31,2.66-1.02,3.59c-1.4,1.83-3.23,1.86-5.76,1.91
				c-4.65,0.09-11.01,0.21-20.14,10.63c-6.79,7.75-10.09,12.48-10.09,16.3c0,5.01,5.69,8.45,16.63,15.06
				c21.65,13.07,62.44,47.23,62.44,69.19c0,0.66-0.04,1.32-0.11,1.96v0c-0.55,5.36-1.64,8.56-3.24,9.51
				c-0.36,0.21-0.73,0.3-1.14,0.28c-1.2-0.06-2.63-2.04-4.29-4.33c-1.45-2-3.1-4.27-5.22-6.3c-4.22-4.04-10.52-3.31-19.24-2.31
				l-3.93,0.44c-10.01,1.04-26.14-0.86-41.1-4.86c-13.72-3.67-22.49-10.32-27.2-13.9c-2.47-1.88-3.5-2.63-4.16-2.4
				c-0.74,0.26-0.53,1.64,1,6.7c1.88,6.21,4.28,17.36,4.85,28.34c0.58,11.08-0.24,20.06-6.08,27.85
				c-13.62,18.15-66.23,31.54-98.28,36.1c-18.07,2.57-29.45,1.44-32.03-3.21c-2.33-4.19,4.92-10.74,13.3-18.33
				c7.28-6.59,15.53-14.05,18.81-21.32c1.06-2.35,1.01-4.1-0.16-5.19c-0.93-0.87-2.56-1.32-4.82-1.33c-2.88-0.01-5,0.7-7.06,1.38
				c-4.89,1.62-9.5,3.15-23.74-5.23c-3.93-2.31-8.02-5.29-12.35-8.44c-3.73-2.71-7.58-5.52-11.43-7.95
				c-9.2-5.81-18.22-6.28-28.67-6.82c-8.8-0.46-18.77-0.97-30.77-4.83c-22.82-7.33-53.36-40.19-43.22-59.63
				c1.19-2.28,2.82-3.64,4.99-4.14c4.68-1.08,11.44,1.94,19.27,5.44c6.28,2.81,13.4,5.99,20.78,7.63
				C275.46,314.28,289.51,312.52,300.66,310.76z M534.01,211.7c0-0.66,0.14-1.01,0.34-1.12c0.03-0.01,0.11-0.05,0.31,0.02
				c0.25,0.09,0.47,0.27,0.47,0.48c0,0.04-0.01,0.08-0.03,0.13c-0.04,0.1-0.25,0.38-1.07,0.64
				C534.03,211.81,534.01,211.74,534.01,211.7z M387.3,242.09c1-2.83,2.17-5.39,3.44-7.79c-0.61,2.21-1.26,4.13-1.77,5.4
				c-1.51,3.75-2.3,4.94-2.52,5.06C386.59,244.66,386.69,243.84,387.3,242.09z M591.28,368.97L591.28,368.97L591.28,368.97z"/>
		</g>
		<g>
			<path class="st0" d="M319.95,203.32c-8.67,2.92-15.89,6.64-20.2,8.87l-3.79,1.87c-2.61,1.07-2.49,1.55-1.9,3.85l0.4,1.66
				c2.59,11.86,17.87,49.19,25.54,62.41c7.35,12.65,10.54,19.01,8.14,22.62c-1.93,2.9-7.58,4.26-16.94,6.49l-5.51,1.33
				c-12.88,3.17-24.52,4.71-31.91,4.23c-10.14-0.67-18.22-4.41-24.7-7.42c-7.82-3.63-14.01-6.49-19.32-1.69
				c-4.74,4.29-6.31,10.87-4.53,19.02c3.1,14.22,16.63,32.05,28.96,38.14c12.79,6.32,22.54,6.45,31.14,6.57
				c7.36,0.1,14.31,0.19,22.2,4l9.11,4.75c14.46,7.74,36.3,19.43,50.04,17.48c4.88-0.69,10.47-3,14.96-4.85
				c4.24-1.75,7.91-3.26,9.1-2.65c0.54,0.28,0.58,1.05,0.13,2.3c-2.07,5.7-9.51,12.92-16.71,19.89
				c-8.77,8.5-17.84,17.29-18.13,24.01c-0.13,2.99,1.14,5.37,3.79,7.09c3.99,2.58,10.98,3.59,20.8,3
				c30.55-1.84,84.42-15.1,99.31-31.69c6.42-7.15,7.5-15.46,7.16-26.55c-0.34-11.17-2.6-23.21-4.26-32.01
				c-1.65-8.77-2.14-13.06-0.51-13.73c1.16-0.47,3.64,0.76,7.4,2.63c4.15,2.06,9.83,4.89,17.48,7.34
				c9.36,2.99,27.03,7.97,40.26,7.61l3.51-0.11c9.71-0.33,17.38-0.59,22.04,3.95c2.27,2.21,4.15,4.75,5.81,7
				c2.24,3.03,4.17,5.64,6.4,6.62c1.59,0.7,3.17,0.92,4.7,0.67c2.24-0.37,4.42-1.79,6.48-4.2l0.01-0.02
				c10.41-17.29-27.72-59.4-50.76-73.89l-9.91-6.03c-15.35-9.14-17.32-10.31-12.67-27.18c3.59-13.02,6.62-13.87,8.62-14.44
				c0.65-0.18,1.27-0.36,1.78-0.86c1.63-1.63,0.12-6.24-1.8-12.07c-2-6.08-4.27-12.98-3.63-18.47c0.7-5.95,3.59-9.9,7.95-10.84
				l4.37-0.62c0.91-0.08,1.1-0.1,1.11-0.28c0.01-0.2-0.04-0.2-2.69-0.57l-0.99-0.14c-7.38-1.04-21.94-2.34-39.95-3.57
				c-35.64-2.43-78.98-2.8-97.89,16.18c-6.35,6.37-10.9,15.3-13.54,21.86c0.17-1.52,0.35-3.04,0.35-4.67
				c0-14.57-7.05-32.82-24.93-37.08C349.22,198.14,332.78,198.99,319.95,203.32z M305.84,312.71l5.51-1.33
				c9.47-2.26,15.19-3.63,17.2-6.65c2.47-3.72-0.74-10.12-8.13-22.86c-7.66-13.2-22.93-50.49-25.52-62.34l-0.4-1.67
				c-0.58-2.27-0.66-2.57,1.69-3.53l3.83-1.89c4.3-2.22,11.5-5.93,20.13-8.84c12.73-4.3,29.03-5.15,41.52-2.17
				c17.67,4.21,24.64,22.29,24.64,36.75c0,2.13-0.16,4.17-0.45,6.08c-1.4,3.69-2.13,6.43-2.13,7.14c0,0.09,0.01,0.15,0.03,0.17
				l0.08,0.08l0.16-0.01c0.17-0.02,0.31-0.03,0.96-1.84c0.58-1.62,1.03-3.45,1.33-5.42c2.51-6.58,7.21-16.35,14.01-23.18
				c18.77-18.85,61.95-18.48,97.48-16.05c18,1.23,32.54,2.53,39.91,3.56l0.99,0.14c0,0,0.9,0.14,1.61,0.25l-4.45,0.63
				c-4.6,0.99-7.53,4.93-8.25,11.11c-0.08,0.65-0.11,1.33-0.11,2.02c0,5.14,1.98,11.16,3.75,16.54c1.31,3.97,2.49,7.55,2.49,9.82
				c0,0.89-0.18,1.58-0.62,2.01c-0.43,0.43-0.94,0.57-1.58,0.76c-2.22,0.62-5.25,1.48-8.89,14.66c-1.43,5.17-2.23,8.89-2.23,11.81
				c0,6.69,4.25,9.22,15.05,15.66l9.9,6.02c20.31,12.77,52.4,47.03,52.4,66.67c0,2.57-0.55,4.88-1.74,6.87
				c-1.99,2.34-4.08,3.7-6.19,4.05c-1.41,0.23-2.87,0.02-4.36-0.63c-2.13-0.93-4.03-3.51-6.24-6.5c-1.66-2.25-3.55-4.81-5.84-7.03
				c-4.8-4.67-12.58-4.41-22.42-4.08l-3.5,0.11c-13.14,0.36-30.74-4.6-40.06-7.58c-7.62-2.44-13.28-5.26-17.41-7.31
				c-4.04-2.01-6.47-3.22-7.88-2.65c-1.88,0.76-1.45,4.76,0.29,14.02c1.65,8.79,3.91,20.82,4.25,31.97
				c0.34,11.03-0.73,19.29-7.1,26.38c-14.81,16.51-68.51,29.71-98.97,31.55c-9.68,0.58-16.56-0.4-20.45-2.92
				c-2.55-1.65-3.78-3.96-3.65-6.86c0.29-6.62,9.32-15.38,18.05-23.84c7.55-7.32,14.68-14.23,16.78-19.99
				c0.52-1.42,0.42-2.25-0.3-2.61c-1.43-0.72-4.85,0.69-9.59,2.64c-4.46,1.84-10.02,4.13-14.83,4.81
				c-13.54,1.92-35.28-9.72-49.68-17.42l-9.13-4.76c-8-3.86-15.02-3.96-22.45-4.06c-8.96-0.12-18.21-0.24-30.89-6.51
				c-12.24-6.05-25.69-23.78-28.78-37.94c-1.76-8.08-0.23-14.57,4.44-18.8c5.06-4.57,10.79-1.92,18.72,1.76
				c6.53,3.02,14.65,6.79,24.91,7.47C283.95,317.62,298.23,314.58,305.84,312.71z M384.76,248.79c-0.09,0.29-0.13,0.66-0.23,0.94
				c-0.06,0.15-0.09,0.24-0.14,0.37C384.48,249.74,384.61,249.29,384.76,248.79z"/>
		</g>
		<g>
			<path class="st0" d="M448,200.87c-39.49,5.11-51.31,17.66-61.55,42.15c-2.16,5.17-3.55,9.53-4.3,11.88c0,0-0.13,0.39-0.26,0.76
				c-0.14-7.47-2.12-34.11-22.64-43.22c-23.35-10.37-44.02-3.93-55.12-0.48c-3.63,1.13-6.49,2.02-8.08,1.92
				c-1.76-0.11-2.37-0.56-2.6-0.73l-0.1-0.07l-0.26-0.04c-0.17,0.04-0.17,0.14-0.19,0.35l-0.02,0.2c-0.1,0.9,0.55,3.77,2.29,11.45
				l1.18,5.21c3.65,16.22,8.07,29.86,13.15,40.55l2.59,5.4c5.21,10.82,9.71,20.17,9.33,25.09c-0.43,5.51-4.66,8.1-13.99,11.83
				c-9.22,3.68-20.36,6.38-27.31,7.43c-7.9,1.19-13.75,0.33-19.56-2.88l-1.01-0.56c-5.93-3.3-11.54-6.41-17.31-3.67
				c-4.48,2.12-7.28,5.87-8.34,11.14c-2.81,13.98,7.31,34.15,15.49,40.93c8.08,6.69,16.86,8.78,21.92,8.53l3.01-0.22
				c4.69-0.4,9.54-0.8,16.76,2.1l10.59,4.55c17.48,7.69,43.89,19.3,61.7,17.36c13.69-1.49,24.28-7.92,29.97-11.38
				c2.29-1.39,4.26-2.59,4.82-2.42c0.12,0.04,0.2,0.19,0.2,0.43c0.11,2.84-5.6,8.91-12.22,15.93c-8.24,8.75-18.5,19.65-21.04,28.26
				c-1.54,5.21-0.75,9.29,2.33,12.13c2.84,2.62,7.64,4.15,14.28,4.56c14.64,0.91,36.45-1.81,55.56-6.92
				c18.77-5.02,34.55-11.81,41.19-17.74c6.91-6.16,8.18-13.24,8.02-23.38c-0.11-7.21-1.2-15.35-2.25-23.22l-1.25-9.82
				c-1.13-9.82-1.93-20.18,0.69-22.48c2.38-2.1,10.15,0.39,19.97,3.55c11.08,3.56,24.86,7.99,37.63,8.1l3.14,0.02
				c10.32,0.05,19.24,0.09,24.22,4.71c2.41,2.23,4.37,4.75,6.26,7.19c2.39,3.09,4.65,6.01,7.43,7.66c4.9,2.91,10.2,3.77,15.75,2.54
				l0.05-0.01l0.03-0.02c3.09-1.95,4.74-5.26,4.91-9.84c0.63-16.98-19.69-48.96-40.27-63.36c-6.64-4.65-12.12-7.85-16.53-10.41
				c-11.55-6.73-16.33-9.52-18.45-24.06l-0.38-3.25c-0.61-5.73-1.44-13.57-4.79-15.32c-0.6-0.31-1.26-0.42-1.97-0.33
				c-0.4,0.05-1.16-0.48-1.99-2.16c-3.76-7.67-5.08-28.64,13.94-35.01l6.13-1.85c3.74-1.06,6.44-1.83,6.68-2.78
				c0.09-0.34-0.14-0.67-0.69-1.01c-3.01-1.86-13.79-3.57-32.97-5.21C497.4,199.66,470.01,198.02,448,200.87z M382.58,254.95
				c0.75-2.34,2.13-6.7,4.29-11.86c10.4-24.87,21.7-36.83,61.21-41.93c21.95-2.84,49.29-1.2,63.63,0.03
				c18.82,1.61,29.83,3.34,32.73,5.13c0.43,0.27,0.61,0.51,0.55,0.74c-0.2,0.78-2.94,1.56-6.41,2.55l-6.15,1.86
				c-19.27,6.46-17.96,27.64-14.16,35.38c0.57,1.16,1.46,2.5,2.49,2.36c0.59-0.08,1.12,0.01,1.62,0.27
				c3.19,1.67,4.05,9.75,4.62,15.1l0.38,3.26c2.13,14.66,6.95,17.47,18.6,24.26c4.4,2.57,9.87,5.76,16.5,10.4
				c20.2,14.14,40.15,45.26,40.15,62.36c0,0.26-0.01,0.52-0.02,0.78c-0.17,4.47-1.76,7.7-4.73,9.59
				c-5.37,1.18-10.51,0.34-15.27-2.48c-2.71-1.61-4.95-4.51-7.32-7.57c-1.9-2.45-3.86-4.98-6.29-7.23
				c-5.12-4.74-14.13-4.78-24.57-4.83l-3.14-0.02c-12.67-0.11-26.41-4.53-37.45-8.08c-10.39-3.34-17.91-5.75-20.51-3.46
				c-2.7,2.38-1.97,12.31-0.78,22.69l1.25,9.82c1.05,7.86,2.14,16,2.25,23.2c0.16,10.07-1.09,17.1-7.92,23.19
				c-6.6,5.88-22.31,12.64-41,17.64c-19.05,5.1-40.78,7.81-55.36,6.9c-6.5-0.4-11.2-1.9-13.96-4.44c-3-2.77-3.76-6.76-2.25-11.89
				c2.52-8.56,12.76-19.42,20.98-28.16c6.65-7.06,12.4-13.17,12.29-16.11c-0.02-0.38-0.17-0.61-0.47-0.7
				c-0.78-0.23-2.19,0.59-5.29,2.47c-5.66,3.43-16.19,9.83-29.75,11.3c-17.64,1.92-43.97-9.65-61.39-17.31l-10.61-4.55
				c-7.35-2.95-12.27-2.54-17.03-2.14l-2.99,0.22c-4.95,0.24-13.57-1.81-21.54-8.42c-8.14-6.74-18.19-26.8-15.4-40.7
				c1.04-5.18,3.78-8.86,8.15-10.93c5.5-2.61,10.98,0.43,16.78,3.66l1.01,0.56c5.84,3.23,11.99,4.14,19.93,2.94
				c6.98-1.05,18.17-3.76,27.43-7.46c9.28-3.7,13.78-6.45,14.21-12.07c0.39-4.99-4.13-14.36-9.35-25.2l-2.59-5.4
				c-5.07-10.67-9.49-24.3-13.14-40.5l-1.17-5.21c-1.73-7.65-2.38-10.51-2.28-11.38l0.02-0.2c0.05,0.15,0.74,0.66,2.67,0.78
				c1.71,0.11,4.48-0.75,8.31-1.95c11.8-3.67,31.54-9.83,54.7,0.45c21.37,9.49,22.45,38.31,22.45,43.99v0.14l0.22,0.12
				C381.94,256.95,381.94,256.95,382.58,254.95z"/>
		</g>
		<g>
			<path class="st0" d="M408.26,210.96c-14.66,11.25-20.89,29.28-24.61,40.06c-1.38,4-2.47,7.16-3.53,8.67
				c-0.41,0.58-0.67,0.62-0.77,0.62c-0.83-0.06-1.81-2.93-2.95-6.25c-2.83-8.26-7.55-22.08-19.83-29.86
				c-20.9-13.24-38.29-10.62-49.79-8.88c-4.54,0.69-8.12,1.23-10.19,0.38c-2.46-1.01-3.07-2.7-3.61-4.19l-0.57-1.36
				c-0.29-0.53-0.51-0.8-0.83-0.76c-0.52,0.07-0.81,0.76-0.61,9.74c0.18,7.81,1.34,23.33,7.09,39.48l6.26,16.6
				c3.27,8.44,6.1,15.72,7.24,20.57c1.89,8.02,0.33,12.38-5.95,16.69c-4.7,3.22-10.7,5.88-15.98,8.22l-5.37,2.44
				c-5.74,2.75-10.36,4.11-14.29,1.77l-2.08-1.32c-3.31-2.15-6.73-4.37-11.4-3.42c-3.46,0.71-6.23,2.5-8.22,5.32
				c-7.36,10.39-2.55,32.83,1.54,39.92c4.15,7.21,9.41,10.83,12.25,10.58l2.04-0.36c2.46-0.53,5.52-1.19,11.2,0.9l11.05,4.25
				c20.47,8.03,48.51,19.02,69.64,17.73c24.25-1.48,36.94-11.55,43.76-16.97c2.21-1.76,3.81-3.03,4.77-3.12
				c0.24-0.02,0.3,0.04,0.33,0.07c0.32,0.33,0.22,2.07-7.6,11.04c-7.04,8.08-28.26,32.45-21.58,45.18c1.73,3.3,5.24,5.61,10.42,6.88
				c12.09,2.94,31.21,2.34,49.91-1.56c17.32-3.62,33.9-9.36,41.25-14.29c7.29-4.88,8.67-10.59,8.61-18.81
				c-0.03-4.04-0.61-9.93-1.27-16.75c-1.51-15.59-3.4-35,0.05-44.22c0.97-2.59,2.55-4.24,4.83-5.05c4.51-1.61,11.53,0.22,19.65,2.33
				c8,2.08,17.06,4.43,26.71,4.52l2.35,0.02c11.05,0.08,20.59,0.14,25.67,4.3c2.29,1.88,4.12,4.01,6.05,6.27
				c4.98,5.83,10.63,12.43,26.25,15.55l0.06,0.01l0.06-0.01c3.59-0.6,6.21-2.58,7.8-5.87c6.82-14.15-6.79-47.98-25.54-63.51
				c-7.81-6.47-14.66-10.57-20.71-14.18c-9.8-5.86-16.88-10.1-21.7-20.49l-1.21-2.65c-2.64-5.82-5.37-11.84-9.57-15.17
				c-7.86-6.24-12.96-4.97-16.34-4.13c-2.34,0.58-3.76,0.93-5.03-1.16c-4.8-7.89,4.56-24.39,21.08-31.12l6.8-2.58
				c7.94-2.91,15.45-5.66,14.8-8.49c-0.6-2.63-8.21-4.78-23.95-6.75C491.62,193.91,432.55,192.31,408.26,210.96z M380.51,259.82
				c1.08-1.53,2.18-4.71,3.56-8.73c3.71-10.75,9.92-28.73,24.51-39.92c24.16-18.55,83.04-16.94,114.03-13.07
				c15.32,1.92,23.03,4.04,23.59,6.5c0.6,2.62-7.12,5.45-14.58,8.18l-6.82,2.58c-15.44,6.28-26.56,22.77-21.26,31.49
				c1.43,2.36,3.27,1.9,5.59,1.33c3.46-0.86,8.19-2.04,15.85,4.05c4.14,3.29,6.86,9.27,9.48,15.06l1.21,2.65
				c4.86,10.47,12.35,14.95,21.83,20.62c6.03,3.61,12.87,7.7,20.66,14.15c15.11,12.52,27.16,38.06,27.16,54.35
				c0,3.44-0.54,6.47-1.69,8.87c-1.53,3.17-4.03,5.07-7.43,5.66c-15.39-3.09-20.75-9.35-25.92-15.4c-1.94-2.27-3.78-4.42-6.09-6.31
				c-5.22-4.27-14.85-4.33-26.01-4.41l-2.35-0.02c-9.57-0.09-18.59-2.43-26.56-4.5c-8.23-2.14-15.33-3.98-20.01-2.32
				c-2.4,0.85-4.05,2.57-5.05,5.25c-3.47,9.27-1.58,28.7-0.07,44.32c0.66,6.82,1.23,12.7,1.27,16.73c0.07,8.13-1.3,13.78-8.47,18.59
				c-7.31,4.9-23.81,10.61-41.07,14.21c-18.62,3.89-37.64,4.49-49.64,1.56c-5.05-1.23-8.47-3.48-10.15-6.69
				c-6.61-12.61,14.53-36.88,21.48-44.85c5.91-6.78,8.46-10.6,7.65-11.44c-0.11-0.11-0.33-0.24-0.76-0.2
				c-1.13,0.11-2.69,1.35-5.05,3.22c-6.78,5.38-19.39,15.4-43.46,16.86c-20.99,1.28-48.96-9.69-69.38-17.69l-11.06-4.25
				c-5.84-2.15-9-1.47-11.54-0.92l-1.96,0.34c-2.71,0.24-7.86-3.58-11.78-10.39c-4.06-7.05-8.86-29.35-1.55-39.67
				c1.94-2.74,4.62-4.48,7.95-5.16c4.43-0.9,7.75,1.26,10.97,3.35l2.1,1.32c4.39,2.62,9.72,0.7,14.83-1.75l5.36-2.43
				c5.3-2.35,11.32-5.01,16.06-8.26c4.73-3.24,6.83-6.51,6.83-11.28c0-1.68-0.26-3.55-0.76-5.67c-1.15-4.86-3.97-12.15-7.25-20.6
				l-6.26-16.6c-5.74-16.12-6.9-31.61-7.08-39.41c-0.04-1.58-0.07-3.26-0.07-4.76c0-2.43,0.08-4.36,0.35-4.65
				c0.01,0.13,0.3,0.54,0.3,0.54l0.55,1.33c0.53,1.47,1.2,3.31,3.81,4.38c2.22,0.91,5.7,0.39,10.51-0.34
				c11.41-1.73,28.66-4.33,49.39,8.8c12.18,7.72,16.89,21.48,19.7,29.7c1.52,4.44,2.24,6.4,3.33,6.49
				C379.86,260.65,380.26,260.18,380.51,259.82z"/>
		</g>
		<g>
			<path class="st0" d="M413.48,204.64c-12.43,7.93-18.38,18.59-22.55,27.98c-2.26,5.08-4.06,10.09-5.64,14.5
				c-1.71,4.77-3.19,8.89-4.71,11.54c-1.56,2.72-2.91,4.04-4.12,4.04c-1.94,0.01-3.93-3.37-6.45-7.64
				c-3.4-5.77-8.06-13.67-15.99-19.78c-10.74-8.28-22.68-13.47-32.78-14.24c-4.09-0.31-7.98-0.33-11.42-0.36
				c-5.7-0.03-10.21-0.06-12.32-1.39c-2.71-1.71-3.51-4.27-4.43-7.25l-0.78-2.39c-1.01-2.83-1.7-3.87-2.57-3.86
				c-0.69,0.01-1.56,0.59-2.83,4.84c-1.08,3.61-4.28,16.88-0.07,35.97c2.61,11.82,6.92,26.44,12.47,42.27
				c3.24,9.23,5.21,16.19,1.14,21.66c-2.32,3.1-5.53,5.73-8.64,8.28c-2.2,1.81-4.29,3.51-5.98,5.31c-4.55,4.86-6.77,6.74-7.89,6.72
				c-0.52-0.01-0.9-0.47-1.38-1.06c-0.89-1.09-2.11-2.59-5.43-2.73c-2.11-0.09-4.06,0.46-5.79,1.63c-8.59,5.82-10,25.76-10,33.35
				c0,1.02,0.03,1.82,0.06,2.33c0.31,4.21,0.89,7.59,1.28,9.83c0.16,0.95,0.28,1.68,0.32,2.12c-0.08,0.11-0.2,0.21-0.2,0.32
				c0,0.08,0.02,0.15,0.07,0.2l0.08,0.1l0.28,0.02c0.17-0.03,0.25-0.09,0.25-0.4c0-0.05-0.02-0.17-0.02-0.23
				c0.3-0.2,1.3-0.52,4.29,0.68l1.34,0.54c19.32,7.74,55.28,22.16,82.17,21.92c16.65-0.15,32.13-3.7,42.49-9.75
				c6.57-3.84,11.69-8.09,15.43-11.2c2.14-1.78,3.83-3.18,5.18-4.02c1.94-1.21,2.29-1.09,2.32-1.07c0.65,0.33-2.27,4.52-5.36,8.96
				c-10.58,15.21-30.29,43.51-11.98,53c9.6,4.97,25.71,6.5,43.11,4.1c16.35-2.26,32.8-6.94,39.97-10.2
				c7.52-3.41,8.95-7.45,8.88-13.28l-0.69-8.67c-0.53-4.95-1.19-11.11-1.14-18.51c0.19-29.06,3.24-42.54,10.53-46.56
				c4.47-2.46,10.46-1.57,18.04-0.45c5.73,0.85,12.23,1.82,19.7,1.61c25.27-0.69,27.1,1.27,32.55,7.08
				c3.81,4.06,9.56,10.21,26.69,18.58l0.04,0.02l0.05,0.01c4.05,0.55,7.43-0.52,10.05-3.17c10.7-10.85,5.32-43.73-9.75-59.63
				c-9.66-10.2-18.68-15.43-26.63-20.05c-7.09-4.12-13.21-7.68-17.52-13.71l-1.44-2.03c-4.05-5.74-8.65-12.25-15.6-16.76
				c-15.56-10.11-25.1-7.43-31.41-5.66c-2.76,0.77-4.94,1.39-6.81,0.78c-1.27-0.41-1.99-1.28-2.14-2.59
				c-0.69-5.87,9.96-18.35,24.23-25.04l9.4-4.18c11.67-5.06,22.69-9.85,21.76-14.26c-0.57-2.72-5.68-4.99-15.62-6.93
				C497.53,189.61,437.78,189.14,413.48,204.64z M376.45,263.01c1.45,0,2.85-1.31,4.53-4.24c1.53-2.66,3.01-6.8,4.73-11.58
				c1.58-4.41,3.38-9.41,5.64-14.49c4.16-9.35,10.08-19.97,22.43-27.84c24.19-15.43,83.73-14.94,115.64-8.71
				c9.75,1.9,14.76,4.09,15.3,6.68c0.89,4.22-10.52,9.17-21.56,13.96l-9.42,4.19c-14.39,6.74-25.12,19.36-24.42,25.31
				c0.17,1.43,0.97,2.38,2.4,2.84c2.05,0.66,4.3,0.02,7.16-0.78c6.21-1.74,15.58-4.38,30.94,5.6c6.89,4.48,11.47,10.96,15.5,16.67
				l1.44,2.04c4.36,6.09,10.51,9.67,17.64,13.81c7.93,4.61,16.92,9.83,26.54,19.99c15,15.83,20.38,48.52,9.76,59.29
				c-2.5,2.54-5.72,3.56-9.56,3.05c-17.03-8.33-22.75-14.44-26.53-18.48c-5.55-5.93-7.42-7.92-32.94-7.22
				c-7.41,0.2-13.88-0.76-19.59-1.61c-7.7-1.14-13.78-2.05-18.41,0.51c-7.5,4.13-10.5,17.25-10.7,46.8
				c-0.05,7.41,0.61,13.58,1.14,18.53l0.69,8.65c0.08,6.67-2.2,10.08-8.68,13.03c-7.14,3.24-23.53,7.9-39.82,10.15
				c-17.28,2.39-33.26,0.88-42.76-4.04c-18.02-9.33,1.59-37.5,12.12-52.62c4.38-6.3,6.13-8.87,5.22-9.33
				c-0.44-0.23-1.28,0.09-2.88,1.09c-1.37,0.85-3.07,2.27-5.22,4.06c-3.73,3.1-8.84,7.34-15.37,11.16
				c-10.28,6.01-25.66,9.54-42.2,9.68c-26.76,0.24-62.66-14.15-81.94-21.88l-1.34-0.54c-2.8-1.12-3.98-0.96-4.54-0.7
				c-0.05-0.41-0.13-0.96-0.3-1.88c-0.39-2.23-0.97-5.61-1.28-9.81c-0.04-0.51-0.06-1.32-0.06-2.35c0-7.57,1.39-27.35,9.87-33.1
				c1.64-1.11,3.47-1.63,5.45-1.54c3.09,0.13,4.24,1.54,5.08,2.58c0.55,0.67,0.98,1.2,1.75,1.22c1.18,0.03,2.84-1.06,8.28-6.86
				c1.67-1.78,3.75-3.48,5.94-5.28c3.12-2.56,6.35-5.2,8.69-8.33c4.15-5.56,2.16-12.57-1.1-21.87
				c-5.55-15.83-9.86-30.43-12.46-42.24c-4.2-19.05-1.01-32.27,0.06-35.87c1.19-3.99,2.02-4.59,2.41-4.6
				c0.84-0.01,1.78,2.64,2.13,3.63l0.78,2.38c0.94,3.02,1.75,5.63,4.56,7.4c2.24,1.41,6.82,1.44,12.61,1.47
				c3.42,0.02,7.3,0.04,11.37,0.35c9.99,0.76,21.84,5.91,32.5,14.14c7.88,6.07,12.52,13.95,15.91,19.7
				C372.38,259.9,374.21,263.02,376.45,263.01z"/>
		</g>
		<g>
			<path class="st0" d="M418.75,198.27c-18.97,9.64-24.59,25.61-29.54,39.71c-1.97,5.62-3.84,10.92-6.4,15.63
				c-3.45,6.34-6.22,9.26-8.98,9.47c-3.19,0.24-6.42-3.17-10.9-7.89c-3.08-3.25-6.56-6.92-11.07-10.58
				c-11.14-9.04-21.27-14.42-30.1-16.01c-5.48-0.98-9.67-1.47-13.04-1.87c-11.11-1.3-12.01-1.41-15.78-14.62
				c-1.34-4.69-2.68-7.88-4.9-8.2c-1.09-0.15-2.24,0.4-3.53,1.68c-5.61,5.6-7.63,15.62-7.63,26.82c0,17.59,4.99,38.07,8.93,48.88
				l1.87,5.05c2.76,7.38,5.05,13.48,5.05,18.26c0,1.04-0.11,2.01-0.34,2.92c-0.9,3.51-2.65,6.49-4.34,9.38
				c-1.21,2.07-2.47,4.22-3.41,6.55c-1.86,4.59-2.79,7.84-2.79,9.72c0,0.03,0.01,0.05,0.01,0.07c-7.06,2.42-15.34,26.51-16.28,29.31
				c-2.56,7.62-4.8,13.49-8.47,14.1c-1.87,0.31-3.64,0.06-4.69-0.08c-0.76-0.11-1.14-0.16-1.29,0.02c-0.14,0.17,0.06,0.38,0.51,0.74
				c2.1,1.7,10.49,5.29,24.25,10.39c14.6,5.41,36.21,12.04,56.28,12.92c20.56,0.91,38.52-2.02,50.59-8.24
				c8.74-4.51,17.53-11.63,23.95-16.83c4.16-3.37,8.09-6.56,8.86-6.27c0.12,0.05,0.44,0.39-0.66,2.81l-3.66,7.27
				c-7.32,14.07-19.56,37.63-8.58,47.96c12.05,11.35,36.71,12.56,73.28,3.61c9.62-2.35,9.28-5,8.36-12.08
				c-0.49-3.78-1.17-8.96-0.61-16.13c0.95-12.17,2.98-25.83,5.44-36.55c5.43-23.7,12.53-23.98,28.06-24.58
				c3.56-0.14,7.59-0.3,12.11-0.77c24.38-2.53,26.23-0.93,32.37,4.38l4.76,3.89l16.49,12.49l0.03,0.01
				c4.23,1.67,8.18,1.4,11.74-0.81c12.83-7.97,15.74-37.36,5.27-53.3c-6.93-10.55-16.86-18.18-23.26-21.51l-4.45-2.16
				c-4.54-2.13-8.45-3.96-12.32-8.19l-1.59-1.76c-4.87-5.39-10.4-11.5-19.42-17.01c-6.76-4.13-19.93-10.98-32.16-10.46
				c-6.92,0.29-13.31,1.76-18.44,2.93c-4.72,1.08-8.45,1.93-9.66,1.07c-0.81-0.58-0.58-2,0.7-4.34
				c5.72-10.49,20.67-17.95,35.12-25.18c7.48-3.74,14.55-7.27,20.11-11.09c4.88-3.36,6.86-6.05,6.23-8.47
				c-0.6-2.31-3.6-4.29-9.17-6.07C503.54,186.32,442.58,186.16,418.75,198.27z M373.88,263.38c2.94-0.22,5.82-3.2,9.34-9.66
				c2.57-4.73,4.44-10.04,6.42-15.67c4.93-14.04,10.52-29.96,29.37-39.54c23.72-12.05,84.44-11.88,112.45-2.96
				c5.43,1.73,8.34,3.64,8.92,5.84c0.6,2.32-1.34,4.92-6.11,8.21c-5.53,3.81-12.59,7.33-20.06,11.06
				c-14.51,7.25-29.51,14.74-35.28,25.31c-1.38,2.53-1.57,3.97-0.6,4.66c1.4,1,5.06,0.17,10.12-0.99
				c5.11-1.17,11.47-2.62,18.33-2.91c12.07-0.51,25.13,6.29,31.83,10.39c8.97,5.48,14.47,11.57,19.33,16.94l1.59,1.76
				c3.92,4.28,7.87,6.14,12.45,8.28l4.43,2.16c6.36,3.3,16.23,10.89,23.12,21.39c11.2,17.06,6.55,45.67-5.17,52.95
				c-3.39,2.11-7.16,2.37-11.2,0.78c-0.06-0.05-16.44-12.45-16.44-12.45l-4.74-3.87c-6.09-5.27-8.15-7.05-32.78-4.49
				c-4.5,0.47-8.53,0.63-12.07,0.76c-15.3,0.6-22.98,0.9-28.47,24.84c-2.46,10.72-4.49,24.4-5.44,36.58
				c-0.56,7.19,0.11,12.38,0.61,16.17c0.92,7.09,1.24,9.49-8.07,11.76c-36.37,8.9-60.85,7.72-72.78-3.5
				c-10.84-10.2,1.36-33.66,8.64-47.68l3.66-7.28c1.14-2.5,0.89-3,0.45-3.16c-1.04-0.39-3.64,1.66-9.41,6.34
				c-6.41,5.19-15.18,12.3-23.88,16.78c-11.81,6.09-30.14,9.07-50.29,8.18c-19.98-0.88-41.53-7.49-56.09-12.89
				c-17.32-6.42-22.68-9.15-24.12-10.31c0,0-0.41-0.4-0.43-0.42c0.03,0.07,0.79,0.15,0.79,0.15c1.09,0.15,2.91,0.41,4.88,0.08
				c3.92-0.65,6.12-6.35,8.8-14.33c0.93-2.77,9.09-26.48,15.9-29.05c0.06,0.64,0.23,1.12,0.57,1.35c0.5,0.33,1.14,0.44,1.75,0.32
				c0.54-0.11,0.95-0.4,1.06-0.74c0.12-0.35-0.09-0.71-0.57-1.01c-0.74-0.46-1.55-0.6-2.41-0.42c0.05-1.86,0.98-5.14,2.75-9.53
				c0.94-2.32,2.19-4.46,3.4-6.52c1.7-2.9,3.45-5.9,4.36-9.44c0.24-0.93,0.35-1.92,0.35-2.97c0-4.81-2.29-10.94-5.06-18.33
				l-1.87-5.05c-3.93-10.8-8.93-31.28-8.93-48.83c0-11.13,2.01-21.07,7.57-26.63c1.16-1.16,2.2-1.68,3.08-1.56
				c2.1,0.3,3.48,4.19,4.56,7.96c3.83,13.41,4.99,13.55,16.14,14.86c3.36,0.39,7.54,0.88,13,1.86c8.74,1.57,18.8,6.92,29.88,15.91
				c4.49,3.64,7.97,7.31,11.03,10.55C367.12,260.17,370.42,263.64,373.88,263.38z M282.42,333.37c0.71-0.15,1.36-0.04,1.99,0.35
				c0.36,0.22,0.51,0.48,0.43,0.72c-0.08,0.24-0.38,0.44-0.76,0.52c-0.45,0.09-0.93,0-1.31-0.25c-0.3-0.2-0.44-0.65-0.47-1.3
				C282.34,333.41,282.38,333.38,282.42,333.37z"/>
		</g>
		<g>
			<path class="st0" d="M423.56,192.47c-20.63,7.84-25.34,21.6-30.32,36.17c-1.86,5.45-3.79,11.1-6.63,16.4
				c-5.63,10.54-11.18,16.19-16.06,16.34c-5.9,0.19-12.97-4.89-21.16-10.76c-8.13-5.84-17.36-12.45-27.15-14.83l-11.9-2.52
				c-11.46-2.18-12.94-2.46-16.04-15.99c-1.28-5.59-2.96-10.97-6.54-12.49c-1.09-0.46-2.31-0.55-3.64-0.27
				c-5.64,1.22-12.94,8.04-14.96,23.26c-2,15.03-0.69,33.52,3.26,46.01l5.01,14.03c2.53,6.67,4.54,11.94,4.84,15.92
				c0.25,3.25-0.25,7.23-0.77,11.45c-1.07,8.69-2.19,17.67,3.09,21.39c3.27,2.3,7.45,3.24,9.86,2.86c-0.57,0.64-1.1,1.29-1.36,1.63
				c-3.42,4.41-8.82,11.74-13.73,19.11c-4.57,6.85-10.21,14.04-17.42,15.5c-2.65,0.53-5.9,0.7-8.77,0.85
				c-4.05,0.21-7.24,0.37-7.63,1.45c-0.03,0.08-0.04,0.16-0.04,0.24c0,1.09,2.48,3.08,16.23,8.87c10.81,4.55,32.51,12.54,56.3,14.88
				c23.4,2.3,43.75,0.34,57.31-5.51c13.7-5.92,25.85-15.99,33.88-22.65c4.95-4.11,8.86-7.35,10.18-7.1c0.24,0.04,0.4,0.23,0.48,0.57
				c0.67,2.73-1.24,8.26-3.44,14.67c-4.11,11.97-9.23,26.86-3.21,36.39c10.68,16.89,33.94,14.79,52.64,13.1l10.07-0.78
				c5.38-0.26,7.72-0.46,8.33-1.04c0.16-0.16,0.2-0.34,0.12-0.55l-0.11-0.24c-0.52-1.12-1.89-4.11-0.37-12.76
				c1.56-8.86,4.58-21.9,8.29-35.76c4.32-16.15,8.83-26.18,13.79-30.68c5.94-5.4,13.4-7.1,22.83-9.27
				c9.92-2.27,19.49-3.48,23.12-3.61c3.67-0.13,4.97,0.83,8.44,3.39c3.56,2.63,7.7,6.68,12.38,12.08l0.01,0.02l0.02,0.01
				c3.73,2.56,7.92,3.07,12.11,1.47c13.78-5.24,23.89-29.98,18.64-45.64c-3.46-10.33-10.52-18.59-15.71-21.41
				c-1.79-0.97-3.57-1.67-5.3-2.35c-3.27-1.28-6.35-2.49-9.44-5.4l-1.43-1.36c-4.69-4.47-10.53-10.04-20.87-16.36
				c-9.85-6.03-24.65-13.33-39.21-13.88c-16.46-0.63-28.68,2.81-35.99,4.86c-3.64,1.02-6.27,1.76-7.13,1.28
				c-0.4-0.22-0.47-0.75-0.22-1.62c0.88-3.05,6.09-9.16,17.87-16.36l15.43-9.07c7.15-4.13,14.55-8.4,20.51-12.25
				c7.96-5.15,11.58-9.11,11.39-12.46c-0.12-2.07-1.63-3.88-4.64-5.55C507.14,184.12,446.67,183.69,423.56,192.47z M370.57,261.68
				c5.14-0.16,10.68-5.73,16.45-16.54c2.84-5.32,4.77-10.97,6.64-16.43c4.96-14.51,9.64-28.21,30.1-35.98
				c23.01-8.74,83.2-8.32,104.75,3.62c2.9,1.61,4.37,3.35,4.48,5.33c0.18,3.25-3.39,7.14-11.25,12.23
				c-5.95,3.85-13.34,8.12-20.49,12.24l-15.44,9.08c-11.86,7.25-17.11,13.43-18.01,16.53c-0.29,1-0.17,1.6,0.37,1.91
				c1.06,0.6,3.51-0.09,7.57-1.23c7.27-2.04,19.44-5.46,35.8-4.84c14.43,0.55,29.14,7.81,38.94,13.8
				c10.3,6.3,16.12,11.85,20.8,16.31l1.43,1.36c3.14,2.97,6.42,4.25,9.58,5.49c1.71,0.67,3.48,1.37,5.25,2.32
				c5.13,2.79,12.12,10.99,15.55,21.24c5.1,15.24-5.06,40.22-18.43,45.31c-4.05,1.54-7.95,1.07-11.57-1.41
				c-4.69-5.41-8.84-9.46-12.33-12.04c-3.56-2.63-4.99-3.69-8.87-3.55c-3.65,0.13-13.27,1.34-23.23,3.62
				c-9.13,2.09-17.02,3.9-23.05,9.37c-5,4.54-9.53,14.61-13.87,30.81c-3.71,13.86-6.74,26.9-8.3,35.78
				c-1.53,8.72-0.14,11.75,0.39,12.89l0.1,0.24c0.05,0.12,0.03,0.21-0.05,0.29c-0.49,0.48-3.08,0.68-7.99,0.92l-10.1,0.78
				c-18.55,1.68-41.63,3.76-52.17-12.92c-5.96-9.43-0.86-24.27,3.24-36.2c2.21-6.44,4.13-12,3.45-14.79
				c-0.11-0.46-0.38-0.73-0.8-0.81c-1.53-0.28-4.53,2.14-10.64,7.2c-8.02,6.65-20.14,16.7-33.78,22.59
				c-13.47,5.82-33.72,7.76-57.01,5.47c-23.71-2.33-45.34-10.3-56.13-14.84c-10.89-4.59-16.01-7.34-16.01-8.63
				c0-0.05,0.01-0.1,0.02-0.15c0.31-0.87,3.67-1.04,7.23-1.22c2.89-0.15,6.17-0.31,8.87-0.86c7.37-1.49,13.08-8.75,17.69-15.66
				c4.91-7.36,10.31-14.69,13.72-19.09c0.69-0.89,1.21-1.47,1.65-1.95c0.23-0.08,0.48-0.14,0.66-0.25c0.5-0.33,0.97-0.79,0.97-1.04
				c0-0.03-0.01-0.05-0.02-0.08l-0.05-0.09l-0.19-0.03c-0.36-0.02-1.03,0.58-1.69,1.28c-1.99,0.55-6.36-0.17-9.9-2.67
				c-5.14-3.62-4.04-12.53-2.97-21.15c0.52-4.23,1.02-8.23,0.77-11.49c-0.31-4.02-2.31-9.3-4.86-15.99l-5-14.01
				c-3.94-12.46-5.25-30.91-3.25-45.91c2.01-15.07,9.15-21.8,14.65-22.99c1.22-0.26,2.29-0.19,3.28,0.23
				c3.43,1.46,5.07,6.76,6.33,12.28c3.14,13.73,4.65,14.01,16.36,16.23l11.87,2.51c9.69,2.35,18.87,8.94,26.97,14.75
				C357.33,256.76,364.47,261.87,370.57,261.68z M296.29,338.18c-0.03,0.02-0.05,0.02-0.08,0.05
				C296.25,338.21,296.26,338.21,296.29,338.18z"/>
		</g>
		<g>
			<path class="st0" d="M427.43,187.8c-21.47,5.42-25.14,16.7-29.39,29.76c-1.7,5.22-3.46,10.62-6.43,16.22
				c-7.8,14.66-15.77,22.58-24.37,24.24c-8.69,1.67-17.17-2.98-26.15-7.9c-5.9-3.24-12.01-6.59-18.44-8.22l-9.75-2.22
				c-5.06-1.08-9.07-1.94-11.19-3.06c-3.69-1.95-4.67-7.18-5.7-12.72c-1.34-7.24-2.74-14.72-10.28-16.33
				c-2.78-0.59-5.7-0.36-8.45,0.68c-3.83,1.45-9.15,5.15-12.79,14.53c-5.28,13.63-6.9,31.43-4.03,44.29
				c2.37,10.58,4.93,17.26,7.2,23.15c2.96,7.7,5.52,14.35,7.07,27.32c0.79,6.65,2.41,13.45,8.78,18.21
				c6.32,4.72,14.46,7.57,19.79,6.92l4.35-0.74c0.98-0.2,2.09-0.42,2.23-0.29c0.29,0.27-1.5,2.14-4.77,5.53l-9.68,10.22
				c-5.39,5.82-13.77,13.86-24.21,16.35c-5.73,1.37-12,2.01-17.04,2.52c-6.76,0.69-11.64,1.19-12.28,2.93
				c-0.56,1.51,2.29,3.79,9.23,7.38c5.45,2.82,25.39,12.35,53.15,16.64c14.57,2.25,41.99,5.01,61.99-1.83
				c20.51-7.01,34.5-19.39,43.77-27.57c5.43-4.8,9.35-8.26,11.78-8.13c0.71,0.04,1.29,0.24,1.75,0.62c1.04,0.86,1.42,2.58,1.42,4.86
				c0,2.81-0.58,6.48-1.2,10.44c-0.79,4.98-1.68,10.65-1.68,16.1c0,4.07,0.5,8,1.92,11.43c3.96,9.56,11.97,15.75,22.55,17.42
				c5.12,0.81,11.58,1.02,17.82,1.21c8.18,0.26,15.87,0.53,18.48,2.17c-0.2,0.81-0.36,1.6-0.36,2.19c0,0.46,0.09,0.79,0.3,0.93
				l0.09,0.06l0.31,0.01c0.46-0.1,0.82-0.74,0.99-1.25c0.06-0.2,0.1-0.39,0.1-0.58c0-0.47-0.21-0.89-0.62-1.26
				c-0.09-0.08-0.23-0.13-0.33-0.2c0.18-0.69,0.4-1.47,0.75-2.48l3.41-9.58l7.96-22.56c4.36-12.76,10.05-28.5,15.44-36.95
				c8.61-13.5,20.73-17.31,29.58-20.09c3.96-1.25,7.38-2.32,9.63-3.97l1.02-0.83c0.97-0.83,1.97-1.69,3.1-1.55
				c1.98,0.26,4.36,3.51,7.29,9.94l0.02,0.03c2.58,2.99,6.2,4.15,10.47,3.37c13.31-2.44,29.42-22.67,29.72-37.32
				c0.2-9.69-3.08-18.32-6.24-20.75c-1.33-1.02-2.76-1.53-4.28-2.06c-1.89-0.66-3.84-1.34-5.81-3.11
				c-7.65-6.88-34.91-29.59-64.67-32.99c-27.33-3.12-44.33,2.71-53.47,5.84c-3.27,1.12-5.63,1.93-6.75,1.67l-0.63-0.4
				c-1.05-1.48,1.58-5.78,12.1-13.39c7.48-5.41,17.24-11.8,26.67-17.98l8-5.25c10.44-6.89,20.35-14.78,14.62-21.11
				C508.01,183.64,449.46,182.24,427.43,187.8z M367.35,258.31c8.87-1.71,16.71-9.47,24.67-24.43c2.99-5.62,4.75-11.03,6.45-16.26
				c4.22-12.97,7.87-24.18,29.11-29.54c21.34-5.39,80.41-3.89,93.32,10.38c5.56,6.14-4.23,13.93-14.55,20.73l-7.99,5.25
				c-9.44,6.18-19.2,12.57-26.69,17.99c-9.07,6.56-13.62,11.69-12.18,13.73l0.88,0.56c1.3,0.3,3.6-0.49,7.09-1.68
				c9.09-3.12,26.01-8.92,53.2-5.81c29.6,3.38,56.77,26.02,64.39,32.87c2.03,1.83,4.03,2.53,5.96,3.2c1.48,0.52,2.88,1.01,4.15,1.99
				c2.7,2.09,6.33,10.39,6.12,20.55c-0.29,14.55-16.23,34.62-29.39,37.03c-4.11,0.75-7.46-0.33-9.97-3.22
				c-3.05-6.72-5.4-9.84-7.62-10.13c-1.4-0.18-2.48,0.75-3.53,1.66l-0.99,0.81c-2.19,1.61-5.57,2.67-9.49,3.9
				c-8.91,2.8-21.12,6.64-29.8,20.25c-5.4,8.47-11.1,24.23-15.47,37l-7.96,22.55l-3.41,9.58c-0.23,0.66-0.49,1.49-0.71,2.3
				c-2.89-1.59-10.17-1.85-18.55-2.11c-6.22-0.2-12.66-0.4-17.74-1.21c-10.42-1.65-18.31-7.76-22.22-17.21
				c-1.4-3.39-1.9-7.3-1.9-11.34c0-5.43,0.89-11.1,1.68-16.07c0.64-4.08,1.22-7.7,1.22-10.48c0-2.36-0.41-4.11-1.53-5.05
				c-0.53-0.44-1.22-0.69-2.05-0.73c-2.67-0.15-6.45,3.19-12.16,8.25c-9.24,8.17-23.2,20.51-43.61,27.49
				c-14.52,4.96-37.01,5.62-61.69,1.8c-27.67-4.28-47.55-13.78-52.98-16.59c-6.69-3.46-9.57-5.71-9.07-7.06
				c0.57-1.54,5.58-2.06,11.92-2.7c5.06-0.52,11.35-1.16,17.12-2.54c10.57-2.53,19.01-10.61,24.44-16.47l9.67-10.21
				c4.13-4.28,5.23-5.43,4.76-5.88c-0.32-0.3-1.12-0.14-2.71,0.19l-4.3,0.73c-5.19,0.63-13.16-2.18-19.38-6.83
				c-6.29-4.69-7.88-11.44-8.67-18.03c-1.55-13-4.11-19.66-7.08-27.38c-2.26-5.88-4.83-12.55-7.19-23.12
				c-2.87-12.82-1.25-30.57,4.02-44.16c3.6-9.28,8.82-12.92,12.57-14.34c2.63-1,5.44-1.22,8.1-0.66c7.27,1.55,8.64,8.94,9.97,16.08
				c1.04,5.6,2.03,10.9,5.86,12.92c2.19,1.16,6.23,2.02,11.33,3.11l9.73,2.22c6.36,1.62,12.44,4.95,18.31,8.17
				C349.88,255.33,358.44,260.03,367.35,258.31z M482.95,432.18c0-0.41,0.09-1.08,0.32-2.03c0.02,0.01,0.05,0.03,0.07,0.04
				c0.35,0.32,0.53,0.67,0.53,1.07c0,0.16-0.03,0.34-0.09,0.52c-0.22,0.69-0.58,1.01-0.69,1.03
				C483.02,432.78,482.95,432.6,482.95,432.18z"/>
		</g>
		<g>
			<path class="st0" d="M429.99,184.73c-21.4,2.69-23.62,10.13-26.98,21.4c-1.31,4.39-2.8,9.37-5.71,14.82
				c-6.25,11.67-13.75,20.99-21.13,26.24c-16.14,11.48-27.06,7.65-39.7,3.2c-4.29-1.51-8.73-3.07-13.55-4.05l-12.42-2.24
				c-10.96-1.79-11.16-1.83-11.91-10.61c-0.62-7.34-2.24-15.36-9.51-19.12c-3.79-1.96-7.9-2.66-11.88-2.04
				c-5.24,0.83-10.05,3.98-13.9,9.12c-8.44,11.27-13.35,27.47-12.2,40.32c0.91,10.21,3.86,21.47,8.78,33.48l2.74,6.25
				c1.72,3.78,3.2,7.04,4.36,11.32c1.63,6.08,4.07,13.11,12.35,19.68c8.66,6.88,19.13,11.38,27.33,11.76
				c5.02,0.23,9.06-0.03,11.74-0.2c2.3-0.15,3.96-0.26,4.24,0.09c0.44,0.54-1.78,2.52-6.18,6.46l-4.28,3.85
				c-9.2,8.34-18.69,13.92-28.19,16.59c-9.99,2.8-19.65,4.13-27.41,5.19c-8.9,1.22-14.78,2.03-15.79,4.25
				c-0.63,1.37,0.74,3.2,4.3,5.75c21.82,15.61,79.72,28.35,111.31,20.49c25.75-6.4,40.15-19.7,50.66-29.41
				c5.18-4.79,9.28-8.57,13.17-9.99c2.39-0.87,4.41-1.01,5.99-0.41c2.36,0.89,3.8,3.39,4.28,7.42l0.47,5.73
				c0.88,12.92,2.36,34.54,20.87,39.77c5.26,1.49,10.83,2.18,15.74,2.79c10.25,1.28,17.66,2.21,16.22,8.89l-1.01,3.61
				c-0.51,1.6-0.6,1.91-0.26,1.99c0.26,0.07,0.44,0.03,1.71-1.58c7.28-9.17,17.98-33.71,25.8-51.63l6.8-15.28
				c4.23-8.99,9.21-18.04,16.9-23.33l6.36-4.04c4.6-2.8,8.24-5.01,9.58-7.8c0.33-0.68,0.56-1.32,0.77-1.94
				c1,2.63,3.27,4.07,6.63,4.12c10.69,0.17,31.66-14.29,37.67-28.77c3.79-9.15,4.45-17.64,4.25-19.53
				c-0.12-1.13-0.69-1.36-1.41-1.65c-0.56-0.23-1.2-0.48-1.89-1.27c-2.43-2.76-7.87-7.05-16.64-13.12
				c-15.18-10.5-30.56-17.28-45.7-20.15c-36.24-6.87-56.48,0.34-68.57,4.65c-4.33,1.54-7.45,2.66-9.82,2.58
				c-0.92-0.03-1.48-0.25-1.72-0.66c-1.96-3.41,17.66-19.06,36.68-32.56c11.53-8.19,21.93-16.72,19.89-23.55
				C504.49,183.77,446.78,182.63,429.99,184.73z M376.49,247.4c9.51-6.76,16.79-18.06,21.22-26.35c2.93-5.46,4.41-10.46,5.73-14.86
				c3.33-11.15,5.52-18.51,26.63-21.16c18.42-2.31,74.29-0.17,79.3,16.65c1.99,6.7-8.33,15.15-19.78,23.28
				c-9.27,6.59-39.34,28.43-36.77,32.89c0.3,0.53,1.01,0.81,2.11,0.85c2.48,0.08,5.65-1.04,10.04-2.61
				c12.03-4.29,32.17-11.46,68.25-4.62c15.07,2.85,30.38,9.61,45.51,20.07c8.62,5.97,14.2,10.36,16.58,13.06
				c0.75,0.85,1.46,1.14,2.04,1.37c0.68,0.27,1.09,0.44,1.19,1.41c0.2,1.88-0.46,10.32-4.23,19.43
				c-5.96,14.36-26.68,28.72-37.23,28.55c-3.27-0.05-5.39-1.43-6.31-4.08c0.46-3.3,0.63-4.67,0.63-5.24c0-0.4-0.08-0.41-0.19-0.43
				l-0.25-0.04l-0.04,0.18l-0.07,0.75c-0.04,1.25-0.12,3.86-1.58,6.89c-1.31,2.71-4.91,4.9-9.46,7.67l-6.38,4.06
				c-7.76,5.33-12.75,14.42-17,23.45l-6.8,15.28c-7.81,17.91-18.51,42.44-25.77,51.58c-0.88,1.11-1.19,1.39-1.29,1.44
				c0.16-0.08,0.4-0.84,0.66-1.65l1.02-3.63c1.5-6.97-6.48-7.97-16.58-9.23c-4.89-0.61-10.43-1.3-15.65-2.78
				c-18.26-5.15-19.72-26.65-20.6-39.5l-0.47-5.74c-0.49-4.14-2.01-6.72-4.51-7.66c-1.72-0.65-3.88-0.51-6.41,0.41
				c-3.98,1.45-8.1,5.25-13.31,10.07c-10.48,9.68-24.83,22.93-50.45,29.3c-31.45,7.82-89.1-4.87-110.84-20.42
				c-3.44-2.46-4.77-4.19-4.2-5.45c0.94-2.05,7.03-2.88,15.46-4.04c7.78-1.07,17.47-2.4,27.49-5.21c9.58-2.69,19.13-8.3,28.38-16.68
				l4.27-3.84c5.08-4.55,6.79-6.08,6.22-6.8c-0.42-0.52-1.93-0.42-4.66-0.25c-2.82,0.18-6.68,0.43-11.67,0.2
				c-8.08-0.37-18.44-4.84-27.02-11.66c-8.21-6.52-10.63-13.5-12.25-19.54c-1.16-4.3-2.64-7.57-4.37-11.36l-2.73-6.24
				c-4.91-11.99-7.86-23.23-8.76-33.42c-1.14-12.8,3.75-28.94,12.16-40.17c3.79-5.06,8.5-8.16,13.61-8.97
				c3.85-0.6,7.83,0.08,11.51,1.99c7.13,3.68,8.72,11.61,9.34,18.89c0.76,9,1.2,9.07,12.25,10.88l12.39,2.23
				c4.78,0.97,9.2,2.53,13.48,4.03C348.54,254.97,360.12,259.05,376.49,247.4z"/>
		</g>
		<g>
			<path class="st0" d="M409.65,189.2c-0.82,1.5-1.27,3.39-1.78,5.56c-0.81,3.42-1.81,7.67-4.73,13.02
				c-3.35,6.14-10.66,17.86-22.07,27.32c-10.61,8.8-21.81,14.34-30.73,15.21c-6.53,0.64-16.1-0.38-25.36-1.37
				c-8.52-0.91-16.56-1.76-20.71-1.07c-1.28,0.21-2.01,0.28-2.45,0.03c-0.79-0.44-0.86-2.08-0.71-4.94
				c0.31-5.85-0.23-13.26-7.19-18.67c-5.97-4.64-12.3-6.22-18.83-4.69c-16.36,3.84-28.59,25.59-29.84,38.87
				c-1.19,12.74,1.42,25.73,4.53,32.96c1.38,3.2,2.9,5.72,4.37,8.17c1.56,2.59,3.03,5.03,4.14,7.99
				c2.04,5.41,4.98,11.84,14.15,19.64c10.34,8.8,22.38,14.82,33.04,16.51c10.42,1.66,18.21,1.6,22.86,1.56
				c3.02-0.02,5.02-0.04,5.36,0.44c0.46,0.64-1.65,2.51-5.74,6.02c-20.14,17.3-47.47,21.67-65.56,24.56
				c-10.09,1.61-17.38,2.78-19.16,5.49c-0.77,1.18-0.47,2.61,0.92,4.37c12.35,15.57,71.74,30.55,102.5,25.85
				c29.61-4.52,43.45-17.76,54.57-28.4c4.92-4.7,9.16-8.76,13.99-11.35c4.79-2.57,8.87-3.63,12.13-3.15
				c2.27,0.33,4.14,1.44,5.56,3.29c2.77,3.61,4.68,9.07,6.7,14.84c3.57,10.19,7.62,21.74,17.62,25.75
				c5.04,2.02,9.84,3.02,14.08,3.91c8.68,1.81,14.41,3.01,12.69,11.4l-0.7,3.14c-0.91,3.89-1.69,7.25-0.36,8.21
				c0.31,0.22,0.71,0.31,1.2,0.28c11.57-0.88,34.89-50.43,39-60.15l0.77-1.84c4.93-11.68,9.19-21.76,14.69-27.6l3.84-3.91
				c4.16-4.13,7.44-7.4,8.24-11.73c0.21-1.12,0.35-2.62,0.35-4.23c0-1.78-0.23-3.67-0.71-5.36c9.91-2.53,24.59-10.13,32.87-19.81
				c3.01-3.52,5.57-6.98,7.83-10.02c2.87-3.88,5.14-6.94,6.73-7.88c1.79-1.05,2.92-0.96,3.75-0.89l1.31-0.13l0.31-0.39
				c0.13-0.81-1.6-2.79-10.48-9.8c-9.18-7.25-24.35-17.03-44.5-22.4c-21.05-5.61-42.77-7.35-58.11-4.65
				c-9.2,1.62-18.25,4.39-25.51,6.61c-8.01,2.45-14.33,4.38-15.97,3.22c-0.94-0.66-0.4-2.39,1.64-5.28
				c4.12-5.85,13.02-14.62,23.24-22.89c10.74-8.7,21.3-17.8,22.05-25.1c0.79-7.64-6.14-13.49-20.03-16.93
				C463.7,185.89,415.58,178.33,409.65,189.2z M350.39,250.62c9.03-0.88,20.33-6.46,31.01-15.32c11.45-9.5,18.79-21.25,22.15-27.41
				c2.93-5.38,3.94-9.65,4.75-13.08c0.53-2.25,0.95-4.03,1.76-5.51c5.46-9.99,49.45-4.14,65.25-0.23
				c13.69,3.39,20.51,9.14,19.74,16.63c-0.74,7.21-11.25,16.27-21.95,24.93c-10.24,8.29-19.17,17.09-23.3,22.96
				c-2.16,3.06-2.65,4.85-1.56,5.63c1.86,1.31,7.98-0.56,16.47-3.16c7.25-2.22,16.27-4.98,25.44-6.6
				c15.25-2.69,36.87-0.96,57.84,4.63c20.06,5.35,35.18,15.09,44.32,22.32c7.41,5.85,10.51,8.72,10.38,9.57l-0.14,0.18l-1,0.07
				c-0.86-0.07-2.15-0.18-4.09,0.96c-1.66,0.98-3.95,4.06-6.84,7.97c-2.25,3.04-4.81,6.49-7.81,10.01
				c-8.24,9.63-22.79,17.2-32.55,19.7c-0.62-2.03-1.66-3.73-3.4-4.38c-1.75-0.65-3.96-0.21-6.57,1.3l-0.06,0.03l-0.02,0.05
				c-0.91,2.61,0.54,3.62,1.93,4c1.72,0.48,4.5,0.17,7.76-0.62c0.46,1.68,0.68,3.55,0.68,5.31c0,1.6-0.14,3.07-0.34,4.14
				c-0.78,4.26-4.04,7.5-8.17,11.6l-3.85,3.91c-5.53,5.88-9.8,15.98-14.74,27.68l-0.77,1.83c-3.87,9.15-27.44,59.09-38.63,59.94
				c-0.35,0.03-0.62-0.03-0.83-0.18c-1.18-0.85-0.38-4.3,0.48-7.96l0.7-3.14c1.78-8.65-4.1-9.88-13-11.74
				c-4.22-0.88-9-1.88-13.99-3.88c-9.84-3.94-13.86-15.42-17.41-25.56c-2.03-5.79-3.95-11.27-6.74-14.91
				c-1.48-1.93-3.45-3.09-5.86-3.44c-3.39-0.5-7.59,0.58-12.49,3.21c-4.88,2.62-9.14,6.69-14.08,11.41
				c-11.08,10.6-24.86,23.78-54.31,28.28c-29.94,4.57-90-10.56-102.01-25.7c-1.33-1.67-1.62-3.01-0.91-4.1
				c1.68-2.58,8.89-3.73,18.85-5.32c18.15-2.9,45.57-7.28,65.8-24.67c4.55-3.91,6.37-5.53,5.8-6.34c-0.47-0.65-2.35-0.64-5.76-0.61
				c-4.64,0.04-12.4,0.09-22.76-1.56c-10.56-1.68-22.51-7.66-32.8-16.4c-9.11-7.75-12.04-14.14-14.06-19.52
				c-1.12-2.98-2.6-5.43-4.16-8.03c-1.47-2.44-2.98-4.95-4.35-8.14c-3.1-7.2-5.7-20.15-4.51-32.85c1.2-12.89,13.6-34.86,29.54-38.61
				c6.34-1.49,12.51,0.06,18.35,4.6c6.86,5.34,7.39,12.67,7.08,18.46c-0.18,3.5,0.02,4.71,0.87,5.19c0.64,0.36,1.58,0.24,2.83,0.03
				c4.06-0.68,12.06,0.17,20.53,1.08C334.19,250.24,343.79,251.27,350.39,250.62z M546.65,320.76c1.63,0.61,2.61,2.24,3.2,4.22
				c-3.16,0.77-5.86,1.07-7.53,0.61c-1.29-0.36-1.94-1.1-1.94-2.22c0-0.41,0.1-0.87,0.27-1.37
				C543.07,320.6,545.09,320.18,546.65,320.76z"/>
		</g>
		<g>
			<path class="st0" d="M411.74,184.36c-0.32,0.43-0.34,1.02-0.38,1.92c-0.07,1.75-0.19,4.68-2.81,9.31
				c-2.8,4.94-9.36,14.84-21.85,25.6c-12.21,10.53-24.89,18.55-34.79,21.99c-11.65,4.06-22.77,4.98-31.71,5.72
				c-6.96,0.58-12.45,1.03-15.1,2.87c0,0-1.71,1.41-2.1,1.74c0.05-0.13,0.11-0.29,0.11-0.29l0.41-1.07
				c0.58-1.55,0.86-3.15,0.86-4.76c0-6.28-4.28-12.68-11.43-16.38c-6.61-3.42-14.41-3.76-21.42-0.94
				c-13.01,5.24-24.28,16.25-28.05,27.39c-4.02,11.89-3.91,24.56-1.72,30.93c1.21,3.53,2.94,6.08,4.6,8.54
				c1.2,1.78,2.33,3.45,3.17,5.37c6.21,14.11,27.92,33.06,50.33,38.79c18.28,4.67,30.97,4.71,37.78,4.74
				c3.33,0.01,5.34,0.02,5.73,0.55c0.37,0.49-0.6,1.61-2.16,3.12c-12.47,12.07-44.51,22.83-68.34,26.83
				c-12.98,2.18-25.23,4.23-24.39,10.02c0.85,5.89,11.46,12.93,29.11,19.3c16.69,6.02,41.34,12.1,60.45,11.09
				c31.87-1.68,44.41-14,55.47-24.86c4.47-4.39,8.69-8.54,13.92-11.87c8.39-5.36,15.37-7.55,21.33-6.7
				c9.25,1.32,14.64,9.84,19.86,18.08c4.12,6.5,8.01,12.64,13.62,15.31c4.97,2.36,9.42,3.49,13,4.4c7.35,1.87,11.05,2.81,9.14,11.39
				l-0.49,2.16c-1.42,6.17-2.9,12.56,0.04,15.27c1.09,1.01,2.46,1.49,4.09,1.44c4.12-0.13,9.4-3.74,15.28-10.41
				c9.89-11.24,20.07-27.06,25.94-40.32l5.77-13.69c3.43-8.38,6.4-15.62,9.5-20.4l1.5-2.29c3.97-6.04,6.84-10.41,7.09-16.43
				c0.02-0.43,0.03-0.85,0.03-1.27c0-8.02-3.09-14.95-8.41-18.7c-1.11-0.79-2.35-1.39-3.65-1.91c7.95-2.05,18.56-6.19,27.21-12.62
				l6.49-4.96c6.88-5.33,12.82-9.93,17.34-11.17c5.41-1.49,9.46-0.72,13.02-0.04l0.94,0.18c1.54,0.28,2.65,0.39,3.09-0.04
				c0.59-0.57-0.04-1.96-5.03-6.88c-4.54-4.48-17.57-15.76-40.38-23.75c-22.48-7.87-45.14-11.36-62.16-9.57
				c-16.32,1.71-30.08,5.85-40.12,8.87c-7.94,2.39-13.67,4.11-15.81,3.06c-0.8-0.4-1.12-1.2-0.96-2.45
				c0.56-4.53,6.01-12.45,14.21-20.67l2.52-2.51c9.39-9.29,22.25-22.01,18.7-31.77c-1.44-3.95-5.5-7.13-12.09-9.45
				c-8.79-3.11-21.11-5.63-37.66-7.71C422.11,183.37,412.89,182.81,411.74,184.36z M303.21,253.82l2.21-1.83
				c2.54-1.76,7.97-2.21,14.84-2.78c8.97-0.74,20.14-1.67,31.86-5.76c9.95-3.47,22.68-11.51,34.93-22.07
				c12.52-10.79,19.1-20.72,21.91-25.68c2.65-4.67,2.77-7.64,2.84-9.41c0.03-0.83,0.06-1.43,0.33-1.79c0.7-0.94,6.58-1.25,18.13,0.2
				c16.51,2.07,28.79,4.59,37.54,7.68c6.47,2.28,10.46,5.4,11.86,9.26c3.5,9.63-9.29,22.28-18.64,31.52l-2.53,2.51
				c-8.24,8.26-13.71,16.23-14.28,20.81c-0.17,1.37,0.2,2.26,1.14,2.73c2.34,1.15,7.87-0.51,16.25-3.03
				c10.02-3.01,23.75-7.14,40.01-8.84c16.93-1.78,39.49,1.7,61.89,9.54c22.72,7.95,35.7,19.19,40.22,23.65
				c2.5,2.47,5.75,5.83,5.03,6.53c-0.31,0.31-1.56,0.12-2.61-0.07l-0.93-0.18c-3.63-0.69-7.75-1.48-13.3,0.05
				c-4.61,1.27-10.58,5.9-17.5,11.26l-6.49,4.96c-8.63,6.42-19.49,10.59-27.45,12.61c-2.41-0.88-5.09-1.38-8.07-1.38h-0.07
				l-0.06,0.03c-2.01,1.02-2.96,1.83-2.81,2.4c0.05,0.2,0.26,0.46,0.97,0.61c1.63,0.33,5.37-0.14,10.05-1.3
				c1.39,0.53,2.71,1.16,3.89,1.99c5.23,3.69,8.28,10.54,8.28,18.49c0,0.42-0.01,0.84-0.03,1.27c-0.24,5.96-3.1,10.31-7.05,16.32
				l-1.5,2.29c-3.11,4.8-6.08,12.05-9.52,20.44l-5.76,13.69c-5.86,13.24-16.02,29.04-25.89,40.26
				c-7.32,8.32-12.16,10.18-14.92,10.27c-1.47,0.05-2.72-0.39-3.72-1.31c-2.82-2.61-1.3-9.22,0.04-15.04l0.49-2.16
				c1.96-8.83-2.08-9.86-9.42-11.72c-3.55-0.9-7.98-2.03-12.9-4.36c-5.52-2.62-9.38-8.72-13.47-15.18
				c-5.26-8.31-10.71-16.9-20.18-18.25c-6.11-0.88-13.22,1.34-21.73,6.77c-5.26,3.36-9.49,7.52-13.98,11.92
				c-11,10.81-23.47,23.06-55.14,24.73c-19.01,1-43.57-5.05-60.21-11.06c-17.51-6.32-28.03-13.26-28.87-19.06
				c-0.74-5.14,9.04-7.18,24.06-9.7c23.9-4.01,56.06-14.82,68.59-26.95c2.04-1.97,2.61-2.87,2.19-3.43
				c-0.52-0.69-2.51-0.7-6.12-0.71c-6.79-0.02-19.42-0.06-37.63-4.72c-22.29-5.7-43.88-24.56-50.07-38.59
				c-0.85-1.93-1.99-3.62-3.2-5.4c-1.66-2.45-3.37-4.98-4.57-8.48c-2.18-6.33-2.29-18.95,1.72-30.79
				c4.32-12.77,17.1-22.86,27.85-27.19c6.84-2.76,14.47-2.42,20.93,0.92c8.85,4.58,13.23,13.34,10.41,20.82l-0.41,1.07
				c-0.37,0.94-0.39,1-0.17,1.07C302.72,254.28,302.82,254.18,303.21,253.82z M530.58,317.05c-0.4-0.08-0.62-0.2-0.66-0.37
				c0-0.02-0.01-0.04-0.01-0.06c0-0.25,0.34-0.86,2.58-2.01c2.74,0.01,5.21,0.44,7.45,1.21
				C535.55,316.9,532.07,317.35,530.58,317.05z"/>
		</g>
		<g>
			<path class="st0" d="M413.38,181.63c-0.41,0.09-0.72,0.39-0.8,0.77c0,0.02-0.01,0.05-0.01,0.07c0,0.33,0.52,0.7,1.36,1.08
				c-0.16,0.54-0.41,1.16-0.93,1.99c-2.04,3.27-7.42,10.38-20.46,21.25c-35.03,29.16-58.62,36.2-72.72,40.41
				c-5.6,1.67-9.65,2.93-12.32,4.92c-0.24-0.59-0.44-1.17-0.79-1.8c-4.02-7.09-13.79-13.29-26.58-11.18
				c-14.26,2.36-27.67,10.08-34.16,19.67c-6.73,9.95-10.05,21.84-9.37,27.59c0.43,3.64,1.95,6.01,3.29,8.11l1.66,2.94
				c1.34,3.15,3.88,6.93,11.89,15.18c7.41,7.62,19.83,17.96,36.93,23.93c15.34,5.36,33.58,9.06,45.39,9.22l6.7-0.02
				c4.5-0.05,7.47-0.09,8.27,0.69c0.32,0.31,0.3,0.78-0.05,1.43c-1.7,3.13-9.53,8.24-20.94,13.66c-7.73,3.67-23.37,10.4-41.33,14.18
				l-1.58,0.33c-14.26,3-26.58,5.59-29.16,10.64c-2.82,5.54,3.68,12.12,18.8,19.02c17.63,8.05,39.18,13.78,54.91,14.61
				c17.78,0.93,32.57-2.16,41.64-8.71c4.56-3.3,8.48-7.19,12.27-10.96c3.81-3.79,7.75-7.71,12.31-10.97
				c10.54-7.53,19.73-11.14,28.12-11.03c15.64,0.2,23.25,7.72,29.97,14.35c3.46,3.42,6.72,6.64,10.72,8.45
				c5.44,2.47,9.76,3.37,12.92,4.03c5.78,1.21,7.53,1.58,5.6,9.03l-0.21,0.83c-1.69,6.52-3.8,14.63-0.87,20.2
				c1.6,3.04,4.05,4.87,7.06,5.29c3.8,0.53,8.33-1.12,13.48-4.92c11.42-8.42,23.26-22.53,30.16-35.96
				c4.52-8.78,8.24-17.78,11.22-25.01l5.11-11.83c4.21-8.69,6.05-13.76,5.8-20.81c-0.57-15.77-10.43-26.81-29.3-32.79l-0.05-0.01
				l-0.05,0c-0.21,0-0.86,0.01-1.7,0.02c6.02-0.96,15.88-3.28,25.82-8.6l5.58-3.03c16.52-9.02,28.45-15.54,48.36-10.81
				c3.91,0.93,6.99,1.66,8.13,0.8c0.86-0.64,0.49-2.06-1.18-4.6c-12.79-19.42-63.58-39.74-97.05-38.81
				c-24.32,0.67-42.52,6.36-54.55,10.13c-9.32,2.92-14.94,4.68-17.2,2.36c-0.93-0.96-1.39-2.3-1.39-3.96
				c0-3.37,1.89-8.02,5.52-13.34l5.12-7.2c4.42-6.11,9-12.42,11.44-17.83c1.36-3.01,2.04-5.67,2.04-8.03c0-4.51-2.51-7.88-7.6-10.36
				c-7.24-3.52-19.83-6.55-29.94-8.98c-5.98-1.44-11.7-2.81-14.26-3.86c0.06-0.25,0.15-0.54,0.15-0.72c0-0.54-0.22-0.81-0.38-0.93
				C413.97,181.62,413.68,181.57,413.38,181.63z M413.02,182.48c0-0.01,0-0.03,0-0.04c0.06-0.3,0.29-0.48,0.49-0.52
				c0.13-0.03,0.24,0,0.35,0.07c0.16,0.12,0.26,0.36,0.26,0.71c0,0.14-0.08,0.36-0.12,0.54
				C413.41,182.96,413.02,182.7,413.02,182.48z M320,247.48c14.13-4.22,37.79-11.28,72.88-40.5c13.08-10.89,18.48-18.03,20.53-21.32
				c0.51-0.82,0.78-1.44,0.95-1.96c2.38,1,7.15,2.2,14.17,3.88c10.09,2.42,22.65,5.44,29.83,8.94c4.96,2.42,7.41,5.71,7.41,10.12
				c0,2.32-0.68,4.95-2.02,7.92c-2.43,5.39-7,11.69-11.41,17.79l-5.12,7.2c-3.65,5.34-5.55,10.05-5.55,13.48
				c0,1.72,0.48,3.12,1.45,4.12c2.47,2.53,8.22,0.73,17.75-2.26c12.01-3.76,30.15-9.44,54.39-10.11
				c33.32-0.92,83.9,19.3,96.63,38.64c1.54,2.34,1.95,3.74,1.25,4.27c-0.94,0.71-4.05-0.03-7.66-0.89
				c-20.14-4.78-32.16,1.78-48.79,10.86l-5.58,3.02c-11.22,6-22.39,8.21-27.81,8.9c-1.82,0.07-3.59,0.18-3.67,0.37l-0.05,0.11
				l0.14,0.07c0.1,0.05,1.3-0.01,3.12-0.22c1.11-0.05,2.49-0.09,4.37-0.11c18.68,5.94,28.44,16.87,29.01,32.51
				c0.02,0.42,0.02,0.84,0.02,1.25c0,6.38-1.85,11.32-5.8,19.46l-5.12,11.84c-2.98,7.22-6.7,16.22-11.22,24.99
				c-6.89,13.39-18.69,27.46-30.07,35.85c-5.04,3.71-9.43,5.34-13.07,4.83c-2.86-0.4-5.19-2.16-6.73-5.1
				c-2.9-5.49-0.8-13.56,0.89-20.04l0.21-0.83c2-7.72-0.16-8.17-5.9-9.38c-3.13-0.66-7.42-1.55-12.8-3.99
				c-3.93-1.78-7.17-4.98-10.6-8.38c-6.77-6.69-14.45-14.28-30.32-14.48c-8.52-0.11-17.82,3.53-28.45,11.12
				c-4.59,3.28-8.53,7.21-12.35,11.01c-3.78,3.76-7.69,7.65-12.22,10.92c-8.98,6.49-23.64,9.55-41.28,8.62
				c-15.65-0.82-37.12-6.54-54.7-14.56c-14.94-6.82-21.38-13.27-18.63-18.67c2.5-4.91,14.72-7.48,28.87-10.45l1.58-0.33
				c18.02-3.79,33.71-10.54,41.45-14.23c11.66-5.54,19.35-10.57,21.1-13.8c0.41-0.76,0.41-1.32,0-1.71
				c-0.94-0.91-3.84-0.88-8.64-0.82l-6.68,0.02c-11.75-0.16-29.91-3.85-45.2-9.18c-17.01-5.94-29.38-16.24-36.76-23.83
				c-7.98-8.21-10.5-11.97-11.83-15.1l-1.68-2.97c-1.33-2.08-2.83-4.43-3.25-8.02c-0.67-5.71,2.63-17.53,9.33-27.43
				c6.43-9.51,19.73-17.17,33.87-19.5c12.53-2.07,22.11,4.03,26.06,11c0.39,0.69,0.62,1.34,0.87,1.99c-0.57,0.47-1.17,0.92-1.6,1.49
				c-1.33,1.75-2.08,3.61-2.08,4.88c0,0.61,0.18,1.09,0.55,1.34c0.26,0.17,0.72,0.32,1.47,0.04c1.9-0.72,2.88-2.32,2.88-4.42
				c0-0.99-0.29-2.11-0.73-3.27C310.28,250.45,314.32,249.18,320,247.48z M304.36,259.93c-0.26-0.18-0.41-0.57-0.41-1.13
				c0-1.1,0.58-2.84,2.02-4.73c0.36-0.48,0.89-0.86,1.36-1.27c0.36,1.05,0.6,2.05,0.6,2.94c0,1.99-0.89,3.51-2.63,4.17
				C304.69,260.15,304.44,259.99,304.36,259.93z"/>
		</g>
		<g>
			<path class="st0" d="M416.45,178.25c-0.3,0.03-1.55,1.09-2.68,2.51c-2.51,2.21-7.3,6.21-15.76,12.57
				c-16.61,12.49-48.51,35.4-75.56,48.59c-8.79,4.29-14.31,7.17-16.84,12.19c-0.04,0.07-0.05,0.14-0.08,0.21
				c-2.87-1.8-6.44-3.04-10.69-3.63c-13.84-1.91-32.43,3.24-42.34,11.74c-9.82,8.42-16.24,18.67-17.66,23.25
				c-1.05,3.38-0.41,5.37,0.01,6.68l0.29,1.17c0.11,1.4,1.47,3.29,8.06,11.22c6.24,7.51,17.34,18.09,34.72,25.89
				c17.82,7.99,37.61,13.54,51.64,14.48l11.93,0.4c7.38,0.12,13.21,0.21,14.14,1.95c0.94,1.76-3.24,5.39-13.15,11.42
				c-11.29,6.86-25,12.77-37.62,16.22l-5.18,1.39c-14.1,3.73-30.07,7.96-31.81,15.03c-1.01,4.12,2.88,8.66,11.88,13.88
				c13.33,7.73,32.44,14.61,47.56,17.11c16.81,2.78,30.73,1.69,38.18-3c4.3-2.71,7.74-6.22,11.38-9.95
				c2.97-3.04,6.03-6.17,9.81-9.13c10.2-7.99,20.02-12.65,30-14.25c22.09-3.54,33.62,2.48,42.88,7.31c3.32,1.73,6.45,3.37,9.7,4.39
				c5.67,1.78,10.64,2.52,14.01,2.1c1.37-0.17,2.19-0.2,2.65,0.12c0.73,0.52,0.61,2.07-0.41,5.18c-1.6,4.86-4.57,13.92-1.84,22.05
				c1.25,3.74,3.87,8.53,9.24,10.13c3.29,0.98,7.16,0.6,11.49-1.12c12.48-4.97,25.86-16.48,34.1-29.34
				c9-14.04,15.46-29.82,18.57-37.4c10.8-26.37,1.1-45.4-31.44-61.7l-0.03-0.01l-11.41-2.67c-1.52-0.33-2.62-0.56-2.75-0.67
				c0.11,0.03,0.89-0.08,1.71-0.2c3.34-0.48,11.16-1.59,21.11-5.78l2.1-0.89c19.91-8.39,40.51-17.07,64.25-11.74l2.01,0.45
				c5.89,1.34,10.55,2.4,12.65,1.26c0.95-0.52,1.32-1.44,1.13-2.82c-0.65-4.81-7.63-13.46-25.28-23.32
				c-9.73-5.43-35.18-18.23-61.37-19.71c-31.72-1.8-52.19,5.19-65.74,9.81c-7.67,2.62-13.2,4.51-17.25,3.58
				c-4.38-1-6.65-3.96-6.65-8.5c0-1.41,0.22-2.98,0.67-4.69c1.39-5.3,4.12-11.4,6.77-17.3l2.69-6.09c1.39-3.28,2.51-6.58,2.51-9.6
				c0-3.13-1.2-5.95-4.56-8.12c-4.55-2.95-11.66-5.29-18.53-7.56c-8.84-2.92-17.23-5.68-17.23-9.09c0-0.26,0.05-0.52,0.15-0.79
				c0.35-0.93,0.93-1.77,1.54-2.53c1.47-1.3,2.17-1.98,2.33-2.15c0.19-0.19,0.27-0.3,0.27-0.38c0-0.03-0.01-0.06-0.04-0.09
				l-0.08-0.08L416.45,178.25z M306.02,254.21c2.48-4.93,7.95-7.79,16.68-12.04c27.08-13.2,59.01-36.14,75.63-48.63
				c7.32-5.5,11.84-9.2,14.58-11.55c-0.28,0.46-0.57,0.92-0.76,1.41c-0.12,0.31-0.17,0.61-0.17,0.9c0,3.56,8.16,6.25,17.49,9.33
				c6.84,2.26,13.92,4.59,18.42,7.51c3.25,2.1,4.42,4.85,4.42,7.9c0,2.98-1.11,6.25-2.49,9.5l-2.68,6.09
				c-2.65,5.91-5.39,12.01-6.78,17.34c-0.45,1.73-0.67,3.31-0.67,4.74c0,4.68,2.38,7.75,6.95,8.79c4.22,0.96,9.83-0.95,17.59-3.6
				c13.5-4.61,33.91-11.57,65.5-9.78c26.08,1.48,51.44,14.23,61.13,19.64c17.55,9.8,24.48,18.36,25.12,23.11
				c0.17,1.27-0.15,2.11-0.97,2.55c-1.92,1.05-6.47,0.01-12.24-1.3l-2.01-0.45c-23.94-5.37-44.62,3.34-64.62,11.77l-2.1,0.89
				c-9.89,4.16-17.66,5.27-20.97,5.74c-1.56,0.22-2.03,0.29-2.04,0.53c0,0,0,0.01,0,0.01c0,0.26,0.55,0.37,3.04,0.91
				c0,0,11.28,2.64,11.34,2.65c23.95,12,35.46,25.49,35.46,42.33c0,5.9-1.41,12.22-4.2,19.03c-3.1,7.58-9.56,23.35-18.54,37.37
				c-8.2,12.8-21.51,24.26-33.92,29.19c-4.2,1.68-7.94,2.05-11.09,1.11c-5.2-1.55-7.76-6.25-8.99-9.92
				c-2.7-8.06,0.26-17.07,1.84-21.91c1.08-3.3,1.17-4.83,0.3-5.45c-0.65-0.47-1.77-0.37-3.05-0.21c-3.28,0.41-8.16-0.33-13.75-2.07
				c-3.2-1-6.32-2.63-9.62-4.35c-9.34-4.87-20.96-10.94-43.25-7.37c-10.08,1.61-19.97,6.31-30.24,14.35
				c-3.8,2.97-6.87,6.12-9.85,9.16c-3.62,3.71-7.05,7.21-11.31,9.89c-7.34,4.62-21.12,5.69-37.78,2.93
				c-15.06-2.49-34.1-9.34-47.38-17.05c-8.87-5.15-12.71-9.6-11.73-13.6c1.69-6.9,17.54-11.1,31.53-14.8l5.19-1.39
				c12.67-3.46,26.43-9.39,37.75-16.27c10.34-6.29,14.31-9.8,13.27-11.75c-1.03-1.93-6.7-2.02-14.55-2.15l-11.9-0.4
				c-13.97-0.94-33.68-6.47-51.45-14.44c-17.31-7.76-28.36-18.3-34.58-25.78c-6.48-7.79-7.9-9.75-8-11.09l-0.3-1.22
				c-0.44-1.36-1.04-3.23-0.01-6.55c1.41-4.55,7.79-14.74,17.57-23.13c9.81-8.42,28.22-13.53,41.9-11.63
				c4.25,0.59,7.82,1.83,10.66,3.65c-0.95,2.05-1.42,3.92-1.42,5.53c0,3.07,1.48,5.28,3.52,6.35c1.32,0.69,2.74,0.82,3.79,0.32
				c0.95-0.44,1.44-1.31,1.44-2.47c0-0.7-0.18-1.5-0.54-2.38c-1.27-3.06-3.4-5.57-6.29-7.46
				C305.95,254.42,305.97,254.33,306.02,254.21z M307.77,266.27c-1.94-1.02-3.35-3.13-3.35-6.09c0-1.54,0.46-3.33,1.34-5.29
				c2.74,1.84,4.79,4.24,6,7.18c0.36,0.86,0.53,1.64,0.53,2.31c0,1.04-0.42,1.82-1.25,2.2C310.16,267,308.93,266.88,307.77,266.27z"
				/>
		</g>
		<g>
			<path class="st0" d="M402.56,182.12c-14.1,8.78-33.87,22.21-51.32,34.05l-29.22,19.66c-9.14,5.99-14.54,10.4-16.86,16.5
				c-0.88,2.32-1.32,4.62-1.32,6.84c0,1.3,0.21,2.56,0.5,3.79c-0.72-0.15-1.4-0.33-2.18-0.45c-10.98-1.65-27.19-1.08-39.77,5.44
				c-13.5,7.01-23.82,16.52-25.75,18.35l-2.71,2.73c-1.5,1.57-1.92,1.98-2.72,1.8c-0.46-0.1-0.82-0.18-1.04-0.02
				c-0.42,0.32,0.14,1.24,3.62,6.7c4.31,6.78,12.99,16.85,29.93,26.37c18.62,10.46,39.17,17.97,54.97,20.09
				c9.09,1.22,17.02,1.67,23.38,2.03c8.64,0.49,14.35,0.81,15.53,2.69c0.93,1.47-0.83,3.95-5.87,8.29
				c-13.48,11.6-29.46,17.11-43.55,21.98c-8.61,2.97-16.04,5.54-21.66,9.04c-3.84,2.39-5.78,4.77-5.96,7.28
				c-0.2,2.89,1.95,5.98,6.55,9.44c9.14,6.87,24.86,14.25,39.13,18.36c15.14,4.37,27.61,5.35,33.35,2.64
				c3.17-1.5,6.14-4.52,9.59-8.02c7.08-7.2,16.76-17.06,35.95-21.89c13.27-3.34,28.29-4.75,39.2-3.67
				c4.51,0.45,9.39,1.33,14.11,2.18c10.74,1.94,20.88,3.77,26.16,0.58l1.62-1.05l1.08-0.66c-0.03,0.15-0.75,1.64-1.14,2.44
				c-3.29,6.82-4.2,13.68-2.69,20.4c2.53,11.27,9.79,17.13,19.93,16.08c13.05-1.35,27.71-9.63,37.36-21.1
				c10.3-12.24,18.15-26.9,21.75-35.74c11.47-28.2-4.92-46.05-35.08-65.72l-0.03-0.02c-10.19-4.64-16.83-6.72-20.4-7.84
				c-1.45-0.45-2.83-0.88-2.82-1.04c0.01-0.14,1.23-0.43,2.41-0.72c2.4-0.58,6.41-1.54,11.94-3.57
				c16.67-6.09,47.69-17.43,73.79-12.48l4.63,0.91c9.34,1.86,16.72,3.33,19.07-0.03c3.07-4.41-2.8-12.49-15.72-21.62
				c-17.39-12.28-38.56-21.23-56.61-23.93c-19.94-2.98-40.95-2.12-56.21,2.31c-5.36,1.56-10.26,3.31-14.58,4.86
				c-7.23,2.59-13.47,4.82-18.6,4.93c-8.2,0.17-13.33-2.78-15.26-8.77c-2.46-7.64-0.91-14.86,0.46-21.24
				c1.48-6.88,2.64-12.32-1.72-15.79c-3.59-2.86-8.82-4.83-13.88-6.73c-8.24-3.1-15.36-5.77-12.99-11.4
				c0.84-1.99,2.48-4.43,3.94-6.58c2.39-3.54,3.69-5.57,2.67-6.08C416.61,174.29,414.19,174.88,402.56,182.12z M304.29,259.17
				c0-2.19,0.43-4.47,1.3-6.76c2.29-6.03,7.65-10.4,16.73-16.36l29.23-19.66c17.44-11.84,37.21-25.27,51.31-34.04
				c8.6-5.36,13.44-7.83,14.38-7.36c0.78,0.39-1.05,3.1-2.81,5.71c-1.46,2.16-3.11,4.61-3.96,6.62c-2.46,5.85,5.15,8.72,13.21,11.75
				c5.02,1.89,10.22,3.84,13.76,6.66c4.23,3.37,3.08,8.75,1.62,15.55c-1.37,6.4-2.93,13.66-0.46,21.35
				c1.98,6.16,7.27,9.19,15.71,9.01c5.23-0.11,11.22-2.25,18.79-4.96c4.31-1.54,9.2-3.29,14.55-4.85
				c15.18-4.41,36.09-5.27,55.94-2.29c17.97,2.69,39.05,11.6,56.39,23.84c12.79,9.03,18.63,16.98,15.64,21.28
				c-2.18,3.13-9.4,1.69-18.55-0.13l-4.63-0.91c-26.28-4.98-57.4,6.39-74.12,12.5c-5.5,2.01-9.49,2.97-11.88,3.54
				c-1.9,0.46-2.68,0.65-2.71,0.99c0,0.01,0,0.01,0,0.01c0,0.36,0.85,0.62,3.07,1.32c3.56,1.11,10.18,3.19,20.33,7.81
				c23.5,15.32,38.6,29.54,38.6,48.43c0,5.26-1.17,10.87-3.65,16.98c-3.59,8.82-11.43,23.46-21.71,35.67
				c-9.59,11.39-24.13,19.62-37.04,20.95c-13.5,1.4-17.96-9.32-19.42-15.83c-1.5-6.67-0.6-13.48,2.67-20.25
				c1.15-2.38,1.19-2.67,0.88-2.81c-0.3-0.13-0.64,0.1-1.55,0.71l-1.61,1.04c-5.1,3.08-15.13,1.27-25.75-0.65
				c-4.73-0.85-9.62-1.74-14.16-2.19c-10.98-1.09-26.08,0.32-39.42,3.68c-19.32,4.87-29.05,14.77-36.16,22
				c-3.42,3.48-6.37,6.48-9.47,7.95c-5.62,2.65-17.93,1.65-32.93-2.67c-14.21-4.1-29.87-11.44-38.97-18.28
				c-4.33-3.26-6.45-6.16-6.45-8.87c0-0.12,0-0.23,0.01-0.35c0.17-2.42,2.07-4.74,5.81-7.07c5.57-3.48,12.98-6.03,21.56-8.99
				c14.14-4.88,30.16-10.41,43.7-22.06c4.24-3.65,6.2-6.04,6.2-7.66c0-0.35-0.09-0.66-0.27-0.94c-1.28-2.04-7.1-2.37-15.9-2.87
				c-6.36-0.36-14.27-0.81-23.34-2.02c-15.73-2.11-36.2-9.59-54.77-20.02c-16.87-9.48-25.52-19.51-29.81-26.26
				c-2.35-3.7-3.71-5.84-3.71-6.31c0-0.03,0.01-0.06,0.02-0.07c0,0.01,0.58,0.1,0.58,0.1c1.16,0.26,1.72-0.34,3.23-1.92l2.7-2.71
				c1.92-1.83,12.2-11.31,25.66-18.29c12.46-6.47,28.53-7.02,39.41-5.39c0.85,0.13,1.59,0.31,2.37,0.48c0.6,2.26,1.65,4.37,3.26,6.2
				c3.26,3.71,6.31,5.59,8.38,5.17c1-0.2,1.59-0.97,1.59-2.05c0-0.06,0-0.11,0-0.17c-0.15-2.7-3.85-7.33-12.84-9.38
				C304.51,261.8,304.29,260.51,304.29,259.17z M308.08,269.32c-1.54-1.75-2.56-3.78-3.16-5.94c8.62,2.02,12.17,6.46,12.31,9.06
				c0,0.05,0,0.11,0,0.16c0,0.94-0.47,1.6-1.27,1.76C314.54,274.65,311.73,273.48,308.08,269.32z"/>
		</g>
		<g>
			<path class="st0" d="M405.77,174.25c-29.18,12.88-68.63,42.33-84.23,54.4c-8.63,6.67-14.87,12.64-17.25,20.1
				c-0.71,2.22-1.02,4.43-1.02,6.6c0,7.06,3.34,13.64,7.26,18.48c-24.73-5.44-42.99,2.8-60.66,10.81l-8.01,3.58
				c-6.45,2.8-9.12,3.43-12.18,1.67l-1.43-0.87c-1.22-0.76-1.95-1.22-2.46-1.02c-0.48,0.19-0.56,0.82,0.34,3.62
				c6.16,19.05,49.2,44.78,78.07,50.82c14.12,2.95,27.22,4.14,36.79,5.01l8.59,0.86c4.09,0.52,7.04,1.14,8.08,2.48
				c0.84,1.08,0.51,2.69-1.08,5.22c-7.02,11.23-23.9,18.98-38.79,25.83c-5.19,2.38-10.09,4.64-14.45,6.95
				c-6.91,3.67-12.36,8.02-5.5,14.94c5.75,5.8,17.13,12.61,30.43,18.23c12.23,5.16,23.57,8.32,27.56,7.67
				c2.68-0.44,4.41-2.4,6.82-5.11c4.38-4.95,11-12.43,29.52-17.93c26.67-7.92,48.38-8.59,64.23-9.08c12.96-0.4,22-0.7,27.24-4.53
				c-0.42,1.81-0.7,3.77-0.7,5.89c0,4.53,1.02,9.52,3.35,13.88c2.28,4.26,6.76,9.62,15.16,10.94c13.32,2.1,28.5-2.51,39.61-12.05
				c11.99-10.28,21.66-23.8,25.57-32.01c3.91-8.2,4.07-14.18,3.91-19.61c-0.41-13.85-18.49-30.12-37.97-45.64l-0.02-0.01
				c-14.12-9-24.48-12.58-30.05-14.5c-2.63-0.91-4.21-1.45-4.22-1.93c-0.01-0.56,2.12-1.35,5.98-2.77l1.46-0.54
				c8.97-3.33,22.9-7.38,35.5-10.3c15.79-3.67,28.88-4.68,40.02-3.11l7.72,1.18c9.47,1.5,17.65,2.8,22.15,0.74
				c1.9-0.87,3.06-2.11,3.45-3.67c0.91-3.63-2.28-8.82-9.46-15.4c-10.51-9.63-29.02-21.79-49.46-27.02
				c-19.95-5.1-40.49-5.97-54.95-2.32c-6.81,1.72-13,3.96-18.46,5.93c-6.35,2.3-11.83,4.28-16.95,5.07
				c-10.2,1.56-17.45,0.16-22.81-4.41c-8.56-7.3-9.61-15.24-10.45-21.61c-0.56-4.22-1.04-7.87-3.69-9.99
				c-2.88-2.3-6.81-3.68-10.61-5.01c-6.7-2.35-12.49-4.38-9.63-10.81c0.82-1.85,2.29-4.3,3.84-6.89c3.75-6.25,8-13.34,4.95-15.08
				C415.2,170.92,411.57,171.69,405.77,174.25z M303.7,255.36c0-2.15,0.31-4.35,1.02-6.55c2.36-7.39,8.57-13.33,17.15-19.96
				c15.59-12.05,55.01-41.48,84.14-54.34c5.53-2.44,9.1-3.25,10.6-2.38c2.79,1.6-1.39,8.58-5.08,14.73
				c-1.56,2.6-3.03,5.06-3.86,6.92c-2.97,6.68,3.26,8.86,9.85,11.17c3.76,1.32,7.65,2.68,10.48,4.94c2.56,2.05,3.01,5.48,3.58,9.82
				c0.85,6.42,1.9,14.41,10.55,21.78c5.48,4.67,12.87,6.1,23.25,4.51c5.18-0.79,10.69-2.79,17.06-5.09
				c5.45-1.97,11.62-4.21,18.4-5.92c14.36-3.62,34.79-2.76,54.64,2.32c20.36,5.21,38.8,17.32,49.27,26.91
				c7.01,6.43,10.25,11.67,9.38,15.17c-0.37,1.48-1.46,2.65-3.26,3.47c-4.34,1.99-12.43,0.71-21.8-0.78l-7.73-1.18
				c-11.23-1.59-24.39-0.57-40.26,3.12c-12.61,2.93-26.58,6.98-35.57,10.32l-1.46,0.54c-4.38,1.62-6.21,2.29-6.21,3.03
				c0,0,0,0.01,0,0.01c0.01,0.66,1.5,1.17,4.46,2.2c5.55,1.91,15.88,5.48,29.94,14.45c19.42,15.48,37.45,31.69,37.85,45.44
				c0.02,0.77,0.04,1.54,0.04,2.34c0,4.8-0.6,10.18-3.93,17.18c-3.9,8.19-13.54,21.67-25.5,31.92
				c-13.16,11.29-28.86,13.57-39.17,11.94c-8.2-1.29-12.6-6.56-14.84-10.75c-2.33-4.34-3.34-9.31-3.34-13.8
				c0-2.3,0.31-4.43,0.81-6.34c0.45-0.37,0.91-0.72,1.3-1.15c1.64-1.84,2.8-3.94,2.8-4.89c0-0.24-0.07-0.4-0.22-0.47
				c-0.4-0.19-0.92,0.22-1.26,0.54c-1.34,1.24-2.35,3.32-3.01,5.82c-5.04,4.1-14.13,4.43-27.4,4.84
				c-15.88,0.49-37.64,1.17-64.39,9.11c-18.65,5.54-25.31,13.07-29.72,18.05c-2.35,2.65-4.05,4.57-6.54,4.98
				c-3.89,0.63-15.09-2.51-27.23-7.63c-13.25-5.59-24.58-12.37-30.3-18.14c-6.66-6.71-1.34-10.95,5.4-14.53
				c4.35-2.31,9.25-4.56,14.43-6.94c14.95-6.87,31.89-14.65,38.95-25.96c1.66-2.66,1.98-4.3,1.06-5.48
				c-1.13-1.45-4.17-2.1-8.39-2.63l-8.61-0.86c-9.55-0.86-22.63-2.05-36.72-5c-28.76-6.02-71.64-31.64-77.77-50.6
				c-0.83-2.57-0.76-3.21-0.55-3.29c0.23-0.09,1.18,0.51,1.94,0.98l1.45,0.88c3.45,1.99,6.67,0.98,12.7-1.64l8.02-3.58
				c17.69-8.02,35.97-16.27,60.74-10.67c2.34,2.82,4.87,5.03,7,6.33c1.1,0.67,2.63,1.42,3.67,1.17c0.9-0.21,1.44-0.76,1.46-1.45
				c0-0.01,0-0.02,0-0.03c0-1.52-2.49-3.93-9.52-5.75c-0.79-0.2-1.55-0.35-2.32-0.52C307.14,269.14,303.7,262.49,303.7,255.36z
				 M487.14,386.7c0.49-0.45,0.69-0.47,0.69-0.47c0.03,0.03,0.05,0.09,0.05,0.17c0,0.61-0.82,2.58-2.78,4.77
				c-0.23,0.26-0.53,0.45-0.79,0.69C484.96,389.66,485.91,387.83,487.14,386.7z M318.13,280.32c-2.03-1.23-4.4-3.32-6.65-5.95
				c0.6,0.14,1.19,0.25,1.8,0.41c6.39,1.65,9.24,3.93,9.24,5.47c0,0.01,0,0.02,0,0.02c-0.01,0.57-0.43,0.99-1.16,1.17
				C320.72,281.58,319.54,281.18,318.13,280.32z"/>
		</g>
		<g>
			<path class="st0" d="M407.34,170.5c-26.48,5.22-68.03,35.38-86.3,50.6c-12.93,10.77-18.99,19.67-18.99,29.45
				c0,5.25,1.75,10.76,5.11,16.95c3.73,6.85,8.55,13.02,12.78,16.6c-21.13-5.8-41.36-0.35-57.78,4.13
				c-13.6,3.71-24.34,6.64-31.32,2.35l-3.05-2c-2.4-1.64-4.14-2.82-5.43-2.55c-0.66,0.14-1.11,0.65-1.38,1.56
				c-1.09,3.7,2.2,11.67,14.7,22.94c7.35,6.62,27.11,22.82,51.83,30.13c21.94,6.49,43.59,8.73,51.89,9.4l0.57,0.04
				c11.05,0.88,16.59,1.33,16.59,5.95c0,12.77-28.3,28.86-36.98,33.49c-7.09,3.78-12.64,7.37-8.71,12.96
				c5.81,8.28,22.58,16.98,33.67,22.74c4.53,2.36,8.11,4.21,9.97,5.5c0.7,0.48,1.15,0.73,1.56,0.67c0.42-0.06,0.61-0.41,0.94-1.03
				c1.08-2.03,3.96-7.41,22.09-12.96c13.8-4.23,32.44-8.49,48.64-11.14l14.32-2.25c10.6-1.63,19.76-3.04,26.13-4.59
				c7.36-1.79,12.05-3.91,15.22-6.91c1.35,7.45,5.81,15.53,15.37,19.28c10.13,3.97,26.11,5.25,40.61-3.06
				c13.21-7.57,24.93-19.11,29.67-26.58c4.61-7.26,5.21-12.8,5.65-16.84c0.44-4-1.25-7.61-6.94-14.85
				c-5.65-7.2-14.79-16.85-27.17-28.66l-0.01-0.01c-15.77-13.17-30.2-18.74-38.82-22.07c-4.57-1.77-7.33-2.83-7.42-3.96
				c-0.06-0.67,0.8-1.4,2.78-2.39c5.52-2.74,16.8-5.95,28.75-9.34l1.81-0.51c16.14-4.59,29.49-6.38,40.81-5.48l11.54,1.14
				c8.93,0.97,16.64,1.81,22.22,0.78c3.47-0.64,5.77-1.84,6.84-3.56c1.72-2.76,0.41-6.8-3.99-12.36
				c-6.91-8.71-21.69-21.44-40.63-28.66c-18.74-7.14-37.8-9.88-50.99-7.31c-6.75,1.31-13.51,3.69-20.04,5.98
				c-14.59,5.12-28.38,9.97-42.62,4.3c-14.29-5.68-19.96-13.44-24.1-19.11c-2.09-2.86-3.74-5.12-5.91-6.28
				c-2.65-1.41-5.97-2.02-8.89-2.55c-3.44-0.63-6.41-1.17-7.69-2.78c-0.97-1.21-0.89-2.98,0.24-5.4l3-5.42
				c5.03-8.66,12.63-21.76,7.53-25.62C413.5,170.03,410.91,169.8,407.34,170.5z M307.58,267.39c-3.34-6.14-5.08-11.61-5.08-16.83
				c0-9.72,6.02-18.57,18.88-29.28c18.24-15.19,59.71-45.29,86.09-50.5c3.39-0.67,5.83-0.47,7.24,0.6
				c4.91,3.72-2.93,17.22-7.62,25.3l-3.01,5.44c-1.17,2.5-1.24,4.35-0.21,5.64c1.37,1.73,4.43,2.29,7.96,2.93
				c2.88,0.53,6.15,1.12,8.73,2.5c2.09,1.12,3.72,3.35,5.79,6.18c4.16,5.7,9.87,13.51,24.27,19.24c14.46,5.75,28.99,0.64,43.05-4.3
				c6.51-2.29,13.25-4.65,19.96-5.96c13.08-2.54,32.01,0.18,50.65,7.29c18.86,7.19,33.58,19.87,40.46,28.54
				c4.27,5.39,5.61,9.46,3.97,12.09c-1.03,1.65-3.17,2.76-6.55,3.39c-5.49,1.02-13.16,0.18-22.03-0.78l-11.56-1.14
				c-11.39-0.9-24.81,0.9-41.03,5.5l-1.82,0.52c-11.97,3.4-23.28,6.61-28.84,9.37c-2.04,1.02-2.97,1.82-2.97,2.57
				c0,0.03,0,0.05,0,0.08c0.11,1.3,2.95,2.4,7.65,4.21c8.59,3.32,22.97,8.87,38.69,22c12.36,11.8,21.49,21.43,27.13,28.62
				c5.09,6.49,6.95,10.02,6.95,13.53c0,0.38-0.02,0.75-0.06,1.13c-0.44,4.04-1.03,9.55-5.61,16.76
				c-4.72,7.44-16.39,18.93-29.55,26.47c-14.33,8.21-30.11,6.95-40.11,3.03c-9.59-3.76-13.98-11.97-15.23-19.44
				c0.77-0.78,1.52-1.56,2.11-2.47c1.86-2.85,2.88-5.96,2.88-8.13c0-1.33-0.38-2.3-1.18-2.67c-0.53-0.24-1.08-0.27-1.59-0.09
				c-1.77,0.64-2.98,3.85-3.08,8.17c-0.01,0.21-0.01,0.42-0.01,0.63c0,1.43,0.17,2.95,0.42,4.49c-3.12,3.11-7.78,5.3-15.28,7.12
				c-6.35,1.54-15.49,2.95-26.08,4.58L427.64,406c-16.22,2.65-34.89,6.92-48.72,11.16c-18.3,5.6-21.22,11.07-22.33,13.14
				c-0.24,0.45-0.43,0.81-0.62,0.84c-0.25,0.04-0.91-0.42-1.16-0.59c-1.88-1.3-5.47-3.17-10.01-5.53
				c-11.06-5.74-27.77-14.42-33.54-22.63c-3.44-4.9,0.36-8.2,8.59-12.59c8.71-4.65,37.15-20.83,37.15-33.73
				c0-4.9-5.67-5.35-16.98-6.25l-0.57-0.05c-8.27-0.66-29.88-2.9-51.76-9.37c-24.63-7.28-44.33-23.43-51.66-30.03
				c-12.41-11.19-15.69-19.06-14.62-22.7c0.23-0.78,0.59-1.23,1.07-1.33c1.03-0.22,2.87,1.03,4.99,2.47l3.07,2.01
				c7.19,4.42,18.04,1.46,31.78-2.29c16.56-4.52,37.02-10.03,58.29-3.9c1.09,0.86,2.15,1.6,3.12,2.05c2,0.94,3.82,1.43,4.44,1.2
				l0.12-0.04l0.12-0.23c-0.02-0.52-1.93-1.48-4.99-2.5c-0.84-0.28-1.68-0.47-2.52-0.72C316.57,280.91,311.41,274.44,307.58,267.39z
				 M483.35,387.56c0-0.21,0-0.42,0.01-0.63c0.1-4.09,1.27-7.34,2.85-7.91c0.37-0.13,0.74-0.11,1.14,0.07c0.66,0.3,1,1.18,1,2.42
				c0,2.03-0.91,5.02-2.86,8c-0.5,0.77-1.16,1.42-1.79,2.1C483.48,390.23,483.35,388.86,483.35,387.56z M323.98,286.43
				c-0.75-0.35-1.57-0.9-2.42-1.53c0.56,0.17,1.11,0.29,1.67,0.48c3.96,1.32,4.74,2.08,4.74,2.23c0,0,0,0.01,0,0.01
				C327.8,287.72,326.36,287.54,323.98,286.43z"/>
		</g>
		<g>
			<path class="st0" d="M320.57,213.91c-13.67,11.45-19.84,20.05-19.84,30.2c0,5.41,1.75,11.27,5.06,18.23
				c4.91,10.33,12.13,20.27,18.38,25.33l6.6,4.87c0.85,0.58,1.51,1.05,1.69,1.24c-0.28-0.18-1.36-0.49-1.36-0.49
				c-9.24-3.06-19.15-4.2-29.47-3.38c-11.35,0.9-23.95,2.69-34.07,4.12l-7.51,1.05c-10.84,1.47-18.87,1.62-25.42-2.19l-4.9-3.09
				c-4.43-2.9-7.93-5.2-10.8-3.95c-1.46,0.64-2.41,1.96-2.41,4.06c0,3.19,2.17,8.18,8.04,15.33c11.77,14.33,28.85,26.89,45.69,33.59
				c21.37,8.5,43.17,12.65,55.35,13.61l7.61,0.52c9.58,0.6,15.91,1,18.49,4.19c1.18,1.46,1.77,3.26,1.77,5.34
				c0,3.08-1.29,6.8-3.84,11.02c-5.79,9.58-13,14.61-18.26,18.27c-4.02,2.8-6.93,4.83-6.93,7.47c0,0.61,0.16,1.25,0.49,1.95
				c2.2,4.57,9.76,9.91,17.08,15.06c7.05,4.97,13.71,9.67,13.98,12.75c0.01,0.17,0.02,0.33,0.02,0.48c0,0.56-0.13,1.02-0.28,1.45
				c-2.26,1.07-3.19,1.87-3.19,2.34c0,0.04,0.01,0.08,0.02,0.12c0.07,0.16,0.3,0.31,0.75,0.26c0.88-0.1,2.24-0.94,2.83-2.52
				c2.12-0.99,5.51-2.27,11.03-3.81c13-3.63,31.67-8.12,49.94-12.01l0.72-0.15c18.51-3.94,36-7.66,46.83-11.25
				c11.4-3.78,17.72-7.94,21.13-13.92c0.25-0.44,0.42-0.86,0.64-1.3c3.14,4.87,8.14,9.06,14.77,12.02c10.88,4.86,23.85,5.6,34.7,2
				c14.42-4.8,27.84-13.68,33.64-19.98c4.34-4.71,6.19-8.7,7.42-11.34l0.95-1.92c1.24-2.08,0.44-3.54-4.18-10.02
				c-4.51-6.32-12.25-15.82-23.02-28.22l0,0c-15.44-16.71-33.87-24.9-46.07-30.32c-8.06-3.58-12.92-5.74-11.03-8.06
				c1.98-2.42,8.75-4.84,17.31-7.9l5.65-2.04c14.68-5.36,27.73-8.08,38.77-8.09c5.14,0,10.56,0.29,15.81,0.57
				c12.7,0.68,24.69,1.33,29.05-2.56c2.31-2.06,2.35-5.2,0.12-9.61c-3.88-7.66-14.31-19.78-30.98-28.71
				c-16.28-8.73-33.42-13.4-44.72-12.18c-8.43,0.91-16.04,3.66-23.4,6.32c-11.96,4.32-23.26,8.41-37.93,5.39
				c-16.19-3.33-27.56-9.43-35.87-13.88c-4.77-2.56-8.53-4.58-11.5-5.1c-3.42-0.6-7.15-0.05-10.15,0.4
				c-2.76,0.41-4.95,0.74-5.82,0.06c-0.71-0.55-0.56-1.81,0.44-3.85l2.24-4.05c4.99-8.74,15.36-26.92,9.84-33.75
				c-1.16-1.43-2.96-2.31-5.36-2.62C381.78,168.01,336.05,200.95,320.57,213.91z M332.97,293.96c0.21-0.2-0.09-0.41-1.87-1.64
				l-6.58-4.85c-6.22-5.03-13.41-14.93-18.3-25.23c-9.45-19.88-6.15-30.68,14.7-48.14c15.44-12.93,61-45.77,86.15-42.55
				c2.27,0.29,3.97,1.12,5.06,2.47c5.42,6.7-4.9,24.8-9.86,33.49l-2.25,4.07c-1.08,2.19-1.19,3.51-0.35,4.15
				c1.05,0.8,3.34,0.46,6.25,0.03c2.95-0.44,6.63-0.99,9.95-0.4c2.88,0.51,6.61,2.51,11.34,5.04c8.33,4.47,19.74,10.59,36.01,13.93
				c14.84,3.05,26.74-1.25,38.26-5.41c7.33-2.65,14.91-5.39,23.26-6.29c11.18-1.21,28.19,3.43,44.38,12.12
				c16.59,8.89,26.97,20.95,30.83,28.57c2.18,4.31,2.16,7.36-0.05,9.33c-4.22,3.75-16.09,3.11-28.67,2.44
				c-5.25-0.28-10.69-0.57-15.84-0.57c-11.11,0.01-24.23,2.74-38.97,8.13l-5.65,2.03c-8.96,3.2-15.44,5.52-17.49,8.02
				c-0.32,0.4-0.48,0.78-0.48,1.17c0,2.11,4.65,4.18,11.65,7.29c12.16,5.41,30.55,13.58,45.93,30.23c10.76,12.4,18.49,21.88,23,28.2
				c3.34,4.68,4.66,6.69,4.66,8.21c0,0.55-0.17,1.04-0.49,1.56l-0.97,1.94c-1.22,2.62-3.06,6.59-7.37,11.27
				c-5.77,6.26-19.11,15.1-33.46,19.87c-10.71,3.56-23.52,2.82-34.27-1.98c-6.69-2.98-11.71-7.24-14.8-12.19
				c1.65-3.44,2.34-6.69,2.34-9.42c0-3.92-1.29-6.81-2.72-7.79c-0.63-0.43-1.17-0.41-1.5-0.32c-1.17,0.32-1.89,2.03-2.03,4.81
				c-0.02,0.36-0.03,0.71-0.03,1.07c0,4.14,1.25,8.08,3.47,11.67c-0.26,0.53-0.47,1.05-0.78,1.59c-3.37,5.9-9.62,10.02-20.91,13.76
				c-10.8,3.58-28.27,7.3-46.77,11.24l-0.72,0.15c-18.28,3.89-36.96,8.38-49.97,12.02c-5.05,1.41-8.5,2.66-10.79,3.69
				c0.11-0.39,0.23-0.77,0.23-1.24c0-0.16-0.01-0.33-0.02-0.5c-0.28-3.19-6.99-7.93-14.1-12.94c-7.28-5.13-14.81-10.44-16.98-14.95
				c-0.32-0.67-0.47-1.29-0.47-1.87c0-2.5,2.75-4.42,6.8-7.24c5.29-3.69,12.52-8.73,18.35-18.37c2.6-4.3,3.9-8.02,3.9-11.11
				c0-2.13-0.62-3.97-1.86-5.51c-2.69-3.33-9.12-3.73-18.84-4.34l-7.6-0.52c-12.13-0.96-33.86-5.09-55.17-13.57
				c-16.77-6.67-33.79-19.19-45.52-33.47c-5.86-7.13-8.02-12.07-8.02-15.17c0-1.98,0.88-3.22,2.24-3.81
				c2.58-1.12,5.96,1.1,10.25,3.91l4.92,3.1c6.68,3.89,14.82,3.75,25.79,2.26l7.52-1.05c10.11-1.43,22.7-3.21,34.03-4.11
				c10.23-0.81,20.07,0.31,29.23,3.35C332.51,294.09,332.8,294.12,332.97,293.96z M483.16,376.6c0-0.35,0.01-0.7,0.03-1.06
				c0.19-3.82,1.39-4.44,1.75-4.54c0.31-0.08,0.66,0,1.03,0.25c1.38,0.94,2.61,3.73,2.61,7.53c0,2.63-0.65,5.75-2.18,9.06
				C484.31,384.38,483.16,380.58,483.16,376.6z M353.01,433.32c0-0.01-0.01-0.03-0.01-0.04c0-0.23,0.58-0.88,2.57-1.87
				c-0.64,1.27-1.78,1.89-2.31,1.95C353.19,433.36,353.03,433.38,353.01,433.32z"/>
		</g>
		<g>
			<path class="st0" d="M366.5,180.09c-23.88,10.48-60.28,33.34-66.43,51.33c-2.33,6.81-0.47,13.53,3.78,23.56
				c4.65,10.96,11.69,22.04,18.85,29.64l9.5,9.6c2.34,2.27,3.75,3.65,3.49,3.92c-0.19,0.19-1.62-0.03-3.28-0.28
				c-3.68-0.56-9.84-1.5-18.79-1.23c-12.49,0.38-29.11,1.44-42.34,2.7c-13.17,1.26-22.88,1.24-30.55-2.76l-7.14-4.11
				c-4.97-3.02-9.27-5.62-13.42-5.8c-2.89-0.13-4.83,0.69-5.78,2.44c-4.65,8.52,15.5,35.28,39.77,48.02
				c17.83,9.36,39.58,16.46,55.42,18.09l12.69,0.9c16.93,0.91,28.12,1.51,27.81,17.44c-0.22,11.17-5.2,16.59-8.5,20.17
				c-2.18,2.37-3.76,4.09-2.88,6.22c1.08,2.59,5.03,5.72,9.21,9.04c6.31,5,13.46,10.68,12.19,15.71c-1.44,5.76-7.53,9.43-10.12,11
				c-1.13,0.68-1.48,0.89-1.31,1.1c0.2,0.25,0.72,0.16,5.38-0.8l3.58-0.73c24.32-4.91,81.36-17.62,102.43-25.52
				c13.53-5.07,21.31-10.45,25.21-17.44c2.36-4.22,3.35-8.68,3.58-12.84c1.85,1.9,3.93,3.77,6.46,5.51
				c10.51,7.21,23.83,10.6,35.65,9.06c15.15-1.97,30.12-7.95,37.09-12.84c3.3-2.32,5.69-4.53,7.43-6.15c1.86-1.72,3.2-2.96,4.22-3
				l0.69,0c0.46,0.01,0.78,0.01,0.96-0.16c0.26-0.26-0.03-0.74-1.1-2.49l-1.17-1.94c-2.97-5-8.74-13.68-17.14-25.81l0,0
				c-13.43-19.54-36.49-31.38-51.76-39.21c-8.06-4.14-13.88-7.13-14.73-9.45c-1.16-3.19,3.72-5.63,12.57-10.04l0.94-0.47
				c5.35-2.67,19.38-9.07,34.1-10.68c9.28-1.02,17.78-0.99,25.28-0.97c10.29,0.03,17.72,0.05,21.16-2.67
				c1.8-1.42,2.35-3.56,1.71-6.53c-1.79-8.2-10.2-18.87-21.44-27.16c-13.17-9.72-27.6-16.17-36.75-16.43
				c-9.08-0.26-15.86,2.41-23.04,5.24c-8.64,3.4-17.57,6.92-31.31,5.49c-13.05-1.36-26.87-4.9-39.06-8.02
				c-10.9-2.79-20.31-5.2-25.39-4.93c-6.59,0.35-12.41,3.73-15.88,5.75c-1.18,0.69-2.4,1.4-2.68,1.35c-0.03-0.03-0.11-0.27,0.61-1.6
				l1.46-2.61c5.97-10.52,19.95-35.17,7.4-42.22C396.8,171.76,382.36,173.12,366.5,180.09z M336.04,298.31
				c0.43-0.45-0.56-1.41-3.5-4.26l-9.49-9.59c-7.13-7.57-14.16-18.63-18.79-29.56c-4.23-9.97-6.08-16.66-3.77-23.4
				c6.13-17.91,42.43-40.69,66.24-51.15c15.69-6.89,29.94-8.25,38.13-3.65c12.3,6.91-1.6,31.41-7.53,41.88l-1.47,2.61
				c-0.78,1.44-0.75,1.81-0.44,1.96c0.44,0.21,1.17-0.19,3.21-1.37c3.43-2,9.18-5.34,15.63-5.68c4.98-0.26,14.35,2.14,25.2,4.91
				c12.21,3.13,26.05,6.67,39.15,8.04c13.89,1.45,22.89-2.09,31.59-5.52c7.12-2.81,13.85-5.46,22.8-5.2
				c9.04,0.26,23.35,6.67,36.44,16.34c11.18,8.25,19.55,18.85,21.33,27c0.63,2.88,0.1,4.94-1.6,6.29
				c-3.3,2.62-11.03,2.59-20.82,2.57c-7.51-0.02-16.03-0.05-25.35,0.98c-14.81,1.62-28.91,8.05-34.29,10.73l-0.94,0.47
				c-9.01,4.5-13.98,6.97-12.74,10.36c0.88,2.43,6.76,5.44,14.89,9.62c15.23,7.82,38.24,19.63,51.62,39.1l0,0
				c8.4,12.13,14.16,20.8,17.13,25.8l1.17,1.94c0.76,1.25,1.26,2.07,1.14,2.2c-0.04,0.04-0.37,0.03-0.58,0.03l-0.73,0
				c-1.23,0.04-2.48,1.2-4.55,3.12c-1.74,1.61-4.12,3.81-7.39,6.11c-6.92,4.86-21.8,10.79-36.86,12.76
				c-11.68,1.52-24.86-1.83-35.26-8.97c-2.68-1.84-4.84-3.82-6.74-5.84c0.02-0.44,0.07-0.89,0.07-1.32c0-7.18-2.31-13.08-4.15-14.46
				c-0.38-0.29-0.76-0.4-1.12-0.33c-0.52,0.1-0.89,0.57-1.13,1.43c-0.22,0.79-0.33,1.62-0.33,2.47c0,3.83,2.33,8.16,6.22,12.31
				c-0.19,4.25-1.17,8.85-3.59,13.19c-3.86,6.92-11.58,12.25-25.01,17.29c-21.04,7.89-78.04,20.58-102.35,25.49l-3.58,0.73
				c-2.8,0.57-4.52,0.93-4.89,0.91c0.21-0.01,1.23-0.69,1.23-0.69c2.63-1.59,8.8-5.32,10.27-11.18c0.1-0.41,0.15-0.83,0.15-1.25
				c0-4.84-6.58-10.06-12.45-14.71c-4.15-3.29-8.07-6.4-9.12-8.93c-0.16-0.39-0.24-0.76-0.24-1.13c0-1.52,1.29-2.92,3.06-4.85
				c3.32-3.61,8.35-9.07,8.56-20.33c0-0.21,0.01-0.41,0.01-0.62c0-15.61-11.87-16.25-28.22-17.13l-12.66-0.9
				c-15.77-1.62-37.44-8.7-55.22-18.03c-23.29-12.23-40.23-34.97-40.23-44.93c0-1.07,0.2-2,0.6-2.74c0.88-1.61,2.67-2.36,5.34-2.24
				c4.01,0.17,8.25,2.75,13.16,5.73l7.16,4.13c7.8,4.06,17.6,4.09,30.88,2.82c13.22-1.26,29.83-2.32,42.3-2.7
				c8.89-0.27,15.02,0.67,18.67,1.22C334.63,298.51,335.69,298.67,336.04,298.31z M482.65,366.7c0-0.84,0.11-1.64,0.32-2.42
				c0.27-0.98,0.66-1.16,0.81-1.19c0.23-0.04,0.49,0.11,0.67,0.24c1.81,1.36,4.06,7.14,4.06,14.2c0,0.3-0.04,0.62-0.05,0.92
				C484.84,374.48,482.65,370.35,482.65,366.7z"/>
		</g>
	</g>
</g>
</svg>
